<svg width="20" height="20" viewBox="0 0 20 20" fill="none" xmlns="http://www.w3.org/2000/svg">
<path d="M9.9999 2.20002C12.0686 2.20002 14.0526 3.02181 15.5153 4.48459C16.9781 5.94738 17.7999 7.93134 17.7999 10C17.7999 12.0687 16.9781 14.0527 15.5153 15.5155C14.0526 16.9782 12.0686 17.8 9.9999 17.8V2.20002ZM9.9999 0.400024C7.45382 0.400024 5.01203 1.41145 3.21168 3.2118C1.41133 5.01215 0.399902 7.45395 0.399902 10C0.399902 12.5461 1.41133 14.9879 3.21168 16.7882C5.01203 18.5886 7.45382 19.6 9.9999 19.6C12.546 19.6 14.9878 18.5886 16.7881 16.7882C18.5885 14.9879 19.5999 12.5461 19.5999 10C19.5999 7.45395 18.5885 5.01215 16.7881 3.2118C14.9878 1.41145 12.546 0.400024 9.9999 0.400024Z" fill="white"/>
</svg>
