<svg width="24" height="20" viewBox="0 0 24 20" fill="none" xmlns="http://www.w3.org/2000/svg">
<path d="M21.3335 5.33366L12.0002 11.167L2.66683 5.33366V3.00033L12.0002 8.83366L21.3335 3.00033M21.3335 0.666992H2.66683C1.37183 0.666992 0.333496 1.70533 0.333496 3.00033V17.0003C0.333496 17.6192 0.579329 18.2127 1.01691 18.6502C1.4545 19.0878 2.04799 19.3337 2.66683 19.3337H21.3335C21.9523 19.3337 22.5458 19.0878 22.9834 18.6502C23.421 18.2127 23.6668 17.6192 23.6668 17.0003V3.00033C23.6668 2.38149 23.421 1.78799 22.9834 1.35041C22.5458 0.912825 21.9523 0.666992 21.3335 0.666992Z" fill="#141A1F" fill-opacity="0.9"/>
</svg>
