<svg width="40" height="40" viewBox="0 0 40 40" fill="none" xmlns="http://www.w3.org/2000/svg">
<path d="M40 30.9937C38.545 31.3637 37.645 31.01 36.8375 29.7975L31.095 21.8525L30.265 20.7525L23.5588 29.8237C22.7925 30.915 21.9888 31.39 20.5588 31.0037L29.1462 19.4762L21.1512 9.06375C22.5262 8.79625 23.4762 8.93249 24.32 10.1637L30.2763 18.2075L36.2762 10.2075C37.045 9.11625 37.8712 8.70125 39.2512 9.10375L36.1512 13.2137L31.9513 18.6825C31.4513 19.3075 31.52 19.735 31.98 20.3387L40 30.9937ZM0.01 19.2837L0.7125 15.8287C2.625 8.99125 10.4625 6.15 15.8675 10.375C19.0263 12.86 19.8112 16.375 19.655 20.3125H1.85C1.5825 27.4 6.68375 31.6775 13.1875 29.495C15.4688 28.7287 16.8125 26.9425 17.485 24.7075C17.8262 23.5875 18.3913 23.4125 19.4438 23.7325C18.9063 26.5275 17.6937 28.8625 15.1312 30.3237C11.3025 32.5112 5.8375 31.8037 2.9625 28.7637C1.25 27 0.5425 24.765 0.225 22.375C0.175 21.98 0.075 21.6037 0 21.225C0.00666667 20.5783 0.01 19.9317 0.01 19.285V19.2837ZM1.8825 18.8087H17.9725C17.8675 13.6837 14.6762 10.0437 10.315 10.0125C5.5275 9.975 2.09 13.5287 1.8825 18.8087Z" fill="black"/>
</svg>
