<svg width="24" height="24" viewBox="0 0 24 24" fill="none" xmlns="http://www.w3.org/2000/svg">
<path d="M11.9999 0.333328C10.4678 0.333328 8.95074 0.635096 7.53528 1.2214C6.11981 1.80771 4.83369 2.66707 3.75034 3.75042C1.56242 5.93834 0.333252 8.9058 0.333252 12C0.333252 17.1567 3.68159 21.5317 8.31325 23.0833C8.89659 23.1767 9.08325 22.815 9.08325 22.5V20.5283C5.85158 21.2283 5.16325 18.965 5.16325 18.965C4.62659 17.6117 3.86825 17.25 3.86825 17.25C2.80659 16.5267 3.94992 16.55 3.94992 16.55C5.11658 16.6317 5.73492 17.7517 5.73492 17.7517C6.74992 19.525 8.46492 19 9.12992 18.72C9.23492 17.9617 9.53825 17.4483 9.86492 17.1567C7.27492 16.865 4.55658 15.8617 4.55658 11.4167C4.55658 10.1217 4.99992 9.08333 5.75825 8.25499C5.64159 7.96333 5.23325 6.74999 5.87492 5.17499C5.87492 5.17499 6.85492 4.85999 9.08325 6.365C10.0049 6.10833 11.0083 5.97999 11.9999 5.97999C12.9916 5.97999 13.9949 6.10833 14.9166 6.365C17.1449 4.85999 18.1249 5.17499 18.1249 5.17499C18.7666 6.74999 18.3583 7.96333 18.2416 8.25499C18.9999 9.08333 19.4433 10.1217 19.4433 11.4167C19.4433 15.8733 16.7133 16.8533 14.1116 17.145C14.5316 17.5067 14.9166 18.2183 14.9166 19.3033V22.5C14.9166 22.815 15.1033 23.1883 15.6983 23.0833C20.3299 21.52 23.6666 17.1567 23.6666 12C23.6666 10.4679 23.3648 8.95082 22.7785 7.53535C22.1922 6.11989 21.3328 4.83377 20.2495 3.75042C19.1661 2.66707 17.88 1.80771 16.4646 1.2214C15.0491 0.635096 13.532 0.333328 11.9999 0.333328Z" fill="#141A1F"/>
</svg>
