<svg width="24" height="24" viewBox="0 0 24 24" fill="none" xmlns="http://www.w3.org/2000/svg">
<path d="M12 0.333328C10.468 0.333328 8.95086 0.635096 7.5354 1.2214C6.11994 1.80771 4.83381 2.66707 3.75046 3.75042C1.56254 5.93834 0.333374 8.9058 0.333374 12C0.333374 17.1567 3.68171 21.5317 8.31337 23.0833C8.89671 23.1767 9.08337 22.815 9.08337 22.5V20.5283C5.85171 21.2283 5.16337 18.965 5.16337 18.965C4.62671 17.6117 3.86837 17.25 3.86837 17.25C2.80671 16.5267 3.95004 16.55 3.95004 16.55C5.11671 16.6317 5.73504 17.7517 5.73504 17.7517C6.75004 19.525 8.46504 19 9.13004 18.72C9.23504 17.9617 9.53837 17.4483 9.86504 17.1567C7.27504 16.865 4.55671 15.8617 4.55671 11.4167C4.55671 10.1217 5.00004 9.08333 5.75837 8.25499C5.64171 7.96333 5.23337 6.74999 5.87504 5.17499C5.87504 5.17499 6.85504 4.85999 9.08337 6.365C10.005 6.10833 11.0084 5.97999 12 5.97999C12.9917 5.97999 13.995 6.10833 14.9167 6.365C17.145 4.85999 18.125 5.17499 18.125 5.17499C18.7667 6.74999 18.3584 7.96333 18.2417 8.25499C19 9.08333 19.4434 10.1217 19.4434 11.4167C19.4434 15.8733 16.7134 16.8533 14.1117 17.145C14.5317 17.5067 14.9167 18.2183 14.9167 19.3033V22.5C14.9167 22.815 15.1034 23.1883 15.6984 23.0833C20.33 21.52 23.6667 17.1567 23.6667 12C23.6667 10.4679 23.3649 8.95082 22.7786 7.53535C22.1923 6.11989 21.333 4.83377 20.2496 3.75042C19.1663 2.66707 17.8801 1.80771 16.4647 1.2214C15.0492 0.635096 13.5321 0.333328 12 0.333328Z" fill="white"/>
</svg>
