<svg width="40" height="40" viewBox="0 0 40 40" fill="none" xmlns="http://www.w3.org/2000/svg">
<path d="M38.2817 18.3066L21.6892 1.71693C21.462 1.48964 21.1923 1.30934 20.8954 1.18633C20.5985 1.06332 20.2803 1 19.9589 1C19.6376 1 19.3194 1.06332 19.0225 1.18633C18.7256 1.30934 18.4558 1.48964 18.2287 1.71693L14.7848 5.16074L19.155 9.53082C19.6704 9.35485 20.2249 9.32732 20.7552 9.45137C21.2855 9.57542 21.7702 9.84606 22.1541 10.2324C22.5379 10.6187 22.8055 11.1052 22.9261 11.6363C23.0467 12.1673 23.0156 12.7216 22.8364 13.2359L27.0474 17.4492C27.6704 17.2298 28.3496 17.2292 28.973 17.4473C29.5965 17.6655 30.1271 18.0894 30.4774 18.6493C30.8277 19.2092 30.977 19.8718 30.9005 20.5278C30.824 21.1839 30.5264 21.7943 30.0567 22.2587C29.5811 22.7371 28.9543 23.0356 28.2831 23.1032C27.6119 23.1707 26.9381 23.0032 26.3767 22.6292C25.8154 22.2551 25.4013 21.6978 25.2052 21.0523C25.0091 20.4069 25.0433 19.7134 25.3017 19.0904L21.3757 15.162V25.5006C21.9724 25.796 22.4499 26.287 22.7286 26.8917C23.0072 27.4965 23.0702 28.1785 22.9069 28.824C22.7437 29.4695 22.3641 30.0396 21.8315 30.4393C21.2989 30.8389 20.6454 31.0439 19.98 31.0201C19.3145 30.9964 18.6773 30.7453 18.1746 30.3087C17.6718 29.8721 17.3339 29.2763 17.2171 28.6208C17.1004 27.9653 17.2118 27.2895 17.5329 26.7062C17.854 26.1228 18.3653 25.6672 18.9816 25.4151V14.9815C18.626 14.8358 18.3028 14.6212 18.0305 14.35C17.7583 14.0788 17.5424 13.7564 17.3954 13.4014C17.2483 13.0464 17.173 12.6658 17.1738 12.2815C17.1745 11.8972 17.2513 11.5169 17.3998 11.1625L13.0937 6.85415L1.71695 18.2306C1.48966 18.4578 1.30935 18.7275 1.18633 19.0244C1.06332 19.3213 1 19.6395 1 19.9608C1 20.2822 1.06332 20.6004 1.18633 20.8972C1.30935 21.1941 1.48966 21.4639 1.71695 21.691L18.3094 38.2831C18.5366 38.5104 18.8063 38.6907 19.1032 38.8137C19.4001 38.9367 19.7183 39 20.0397 39C20.361 39 20.6793 38.9367 20.9761 38.8137C21.273 38.6907 21.5428 38.5104 21.7699 38.2831L38.284 21.7694C38.7425 21.3103 39 20.688 39 20.0392C39 19.3904 38.7425 18.7681 38.284 18.309" fill="#376DDF"/>
</svg>
