<svg width="40" height="40" viewBox="0 0 40 40" fill="none" xmlns="http://www.w3.org/2000/svg">
<path d="M6 6H34V34H6V6Z" fill="#F7DF1E"/>
<path d="M13.0001 29.6125L15.2057 28.3257C15.6313 29.053 16.0184 29.6684 16.9469 29.6684C17.8369 29.6684 18.3982 29.3328 18.3982 28.0274V19.1493H21.1068V28.0643C21.1068 30.7687 19.4623 31.9997 17.063 31.9997C14.8962 31.9997 13.6385 30.9179 13 29.6123M22.578 29.3327L24.7834 28.1018C25.364 29.0158 26.1186 29.6872 27.4534 29.6872C28.5758 29.6872 29.2914 29.1463 29.2914 28.4002C29.2914 27.505 28.5562 27.1878 27.318 26.6658L26.641 26.3858C24.6868 25.584 23.3905 24.5768 23.3905 22.4506C23.3905 20.4922 24.9383 19 27.3568 19C29.0788 19 30.317 19.5783 31.2069 21.089L29.0979 22.3947C28.6335 21.5927 28.1306 21.2757 27.3567 21.2757C26.5634 21.2757 26.0604 21.7606 26.0604 22.3947C26.0604 23.178 26.5634 23.4952 27.7242 23.9802L28.4013 24.2599C30.7038 25.2112 32 26.181 32 28.363C32 30.7132 30.0846 32 27.5114 32C24.9963 32 23.371 30.8437 22.5779 29.3328" fill="black"/>
</svg>
