<svg width="24" height="24" viewBox="0 0 24 24" fill="none" xmlns="http://www.w3.org/2000/svg">
<path fill-rule="evenodd" clip-rule="evenodd" d="M0.0999759 2.08839C0.0999759 1.56104 0.309465 1.05529 0.682359 0.682392C1.05525 0.309498 1.56101 0.100009 2.08836 0.100009H21.9094C22.1708 0.0995819 22.4296 0.150706 22.6712 0.250454C22.9127 0.350201 23.1322 0.496614 23.3171 0.681309C23.502 0.866004 23.6487 1.08535 23.7487 1.3268C23.8487 1.56825 23.9001 1.82705 23.9 2.08839V21.9095C23.9003 22.1709 23.849 22.4297 23.7491 22.6713C23.6493 22.9129 23.5028 23.1324 23.318 23.3172C23.1332 23.5021 22.9138 23.6488 22.6723 23.7488C22.4308 23.8488 22.1719 23.9001 21.9105 23.9H2.08836C1.82715 23.9 1.5685 23.8485 1.32719 23.7485C1.08587 23.6486 0.866629 23.502 0.681977 23.3172C0.497324 23.1325 0.350884 22.9132 0.251022 22.6718C0.15116 22.4304 0.0998338 22.1718 0.0999759 21.9105V2.08839ZM9.52045 9.1743H12.7432V10.7927C13.2084 9.86234 14.3984 9.02501 16.1866 9.02501C19.6149 9.02501 20.4273 10.8782 20.4273 14.2783V20.5767H16.9579V15.0529C16.9579 13.1164 16.4928 12.0238 15.3114 12.0238C13.6725 12.0238 12.9909 13.2019 12.9909 15.0529V20.5767H9.52045V9.1743ZM3.57045 20.4285H7.04092V9.02501H3.57045V20.4274V20.4285ZM7.53748 5.30572C7.54402 5.60286 7.49114 5.89832 7.38195 6.17476C7.27276 6.45119 7.10946 6.70303 6.90162 6.9155C6.69378 7.12796 6.44559 7.29677 6.17163 7.41202C5.89767 7.52727 5.60344 7.58664 5.30623 7.58664C5.00901 7.58664 4.71478 7.52727 4.44082 7.41202C4.16686 7.29677 3.91867 7.12796 3.71083 6.9155C3.503 6.70303 3.33969 6.45119 3.2305 6.17476C3.12131 5.89832 3.06843 5.60286 3.07498 5.30572C3.08782 4.72246 3.32854 4.16742 3.74558 3.75946C4.16262 3.3515 4.72283 3.12306 5.30623 3.12306C5.88962 3.12306 6.44983 3.3515 6.86687 3.75946C7.28391 4.16742 7.52463 4.72246 7.53748 5.30572Z" fill="white"/>
</svg>
