<svg width="24" height="24" viewBox="0 0 24 24" fill="none" xmlns="http://www.w3.org/2000/svg">
<path fill-rule="evenodd" clip-rule="evenodd" d="M0.100098 2.08839C0.100098 1.56104 0.309588 1.05529 0.682481 0.682392C1.05538 0.309498 1.56113 0.100009 2.08848 0.100009H21.9095C22.1709 0.0995819 22.4297 0.150706 22.6713 0.250454C22.9129 0.350201 23.1324 0.496614 23.3173 0.681309C23.5022 0.866004 23.6488 1.08535 23.7488 1.3268C23.8488 1.56825 23.9002 1.82705 23.9001 2.08839V21.9095C23.9004 22.1709 23.8491 22.4297 23.7493 22.6713C23.6494 22.9129 23.5029 23.1324 23.3181 23.3172C23.1333 23.5021 22.9139 23.6488 22.6724 23.7488C22.4309 23.8488 22.172 23.9001 21.9106 23.9H2.08848C1.82727 23.9 1.56862 23.8485 1.32731 23.7485C1.086 23.6486 0.866751 23.502 0.682099 23.3172C0.497446 23.1325 0.351006 22.9132 0.251144 22.6718C0.151282 22.4304 0.0999558 22.1718 0.100098 21.9105V2.08839ZM9.52057 9.1743H12.7433V10.7927C13.2085 9.86234 14.3985 9.02501 16.1867 9.02501C19.615 9.02501 20.4275 10.8782 20.4275 14.2783V20.5767H16.9581V15.0529C16.9581 13.1164 16.4929 12.0238 15.3115 12.0238C13.6726 12.0238 12.991 13.2019 12.991 15.0529V20.5767H9.52057V9.1743ZM3.57057 20.4285H7.04104V9.02501H3.57057V20.4274V20.4285ZM7.5376 5.30572C7.54414 5.60286 7.49127 5.89832 7.38207 6.17476C7.27288 6.45119 7.10958 6.70303 6.90174 6.9155C6.6939 7.12796 6.44572 7.29677 6.17175 7.41202C5.89779 7.52727 5.60357 7.58664 5.30635 7.58664C5.00913 7.58664 4.71491 7.52727 4.44094 7.41202C4.16698 7.29677 3.91879 7.12796 3.71096 6.9155C3.50312 6.70303 3.33981 6.45119 3.23062 6.17476C3.12143 5.89832 3.06855 5.60286 3.0751 5.30572C3.08794 4.72246 3.32866 4.16742 3.7457 3.75946C4.16274 3.3515 4.72295 3.12306 5.30635 3.12306C5.88975 3.12306 6.44995 3.3515 6.86699 3.75946C7.28404 4.16742 7.52475 4.72246 7.5376 5.30572Z" fill="#141A1F"/>
</svg>
