<svg width="379" height="313" viewBox="0 0 379 313" fill="none" xmlns="http://www.w3.org/2000/svg">
<circle cx="5.75666" cy="88.4804" r="4.70029" transform="rotate(-15 5.75666 88.4804)" fill="#376DDF" fill-opacity="0.35"/>
<circle cx="10.6226" cy="106.641" r="4.70029" transform="rotate(-15 10.6226 106.641)" fill="#376DDF" fill-opacity="0.35"/>
<circle cx="15.4888" cy="124.801" r="4.70029" transform="rotate(-15 15.4888 124.801)" fill="#376DDF" fill-opacity="0.35"/>
<circle cx="20.3551" cy="142.962" r="4.70029" transform="rotate(-15 20.3551 142.962)" fill="#376DDF" fill-opacity="0.35"/>
<circle cx="25.221" cy="161.123" r="4.70029" transform="rotate(-15 25.221 161.123)" fill="#376DDF" fill-opacity="0.35"/>
<circle cx="30.0872" cy="179.283" r="4.70029" transform="rotate(-15 30.0872 179.283)" fill="#376DDF" fill-opacity="0.35"/>
<circle cx="34.9532" cy="197.444" r="4.70029" transform="rotate(-15 34.9532 197.444)" fill="#376DDF" fill-opacity="0.35"/>
<circle cx="39.8194" cy="215.604" r="4.70029" transform="rotate(-15 39.8194 215.604)" fill="#376DDF" fill-opacity="0.35"/>
<circle cx="44.6854" cy="233.765" r="4.70029" transform="rotate(-15 44.6854 233.765)" fill="#376DDF" fill-opacity="0.35"/>
<circle cx="49.5516" cy="251.925" r="4.70029" transform="rotate(-15 49.5516 251.925)" fill="#376DDF" fill-opacity="0.35"/>
<circle cx="54.4175" cy="270.086" r="4.70029" transform="rotate(-15 54.4175 270.086)" fill="#376DDF" fill-opacity="0.35"/>
<circle cx="59.2838" cy="288.246" r="4.70029" transform="rotate(-15 59.2838 288.246)" fill="#376DDF" fill-opacity="0.35"/>
<circle cx="64.15" cy="306.407" r="4.70029" transform="rotate(-15 64.15 306.407)" fill="#376DDF" fill-opacity="0.35"/>
<circle cx="23.9171" cy="83.6143" r="4.70029" transform="rotate(-15 23.9171 83.6143)" fill="#376DDF" fill-opacity="0.35"/>
<circle cx="28.7833" cy="101.775" r="4.70029" transform="rotate(-15 28.7833 101.775)" fill="#376DDF" fill-opacity="0.35"/>
<circle cx="33.6495" cy="119.935" r="4.70029" transform="rotate(-15 33.6495 119.935)" fill="#376DDF" fill-opacity="0.35"/>
<circle cx="38.5154" cy="138.096" r="4.70029" transform="rotate(-15 38.5154 138.096)" fill="#376DDF" fill-opacity="0.35"/>
<circle cx="43.3817" cy="156.257" r="4.70029" transform="rotate(-15 43.3817 156.257)" fill="#376DDF" fill-opacity="0.35"/>
<circle cx="48.2476" cy="174.417" r="4.70029" transform="rotate(-15 48.2476 174.417)" fill="#376DDF" fill-opacity="0.35"/>
<circle cx="53.1138" cy="192.578" r="4.70029" transform="rotate(-15 53.1138 192.578)" fill="#376DDF" fill-opacity="0.35"/>
<circle cx="57.98" cy="210.738" r="4.70029" transform="rotate(-15 57.98 210.738)" fill="#376DDF" fill-opacity="0.35"/>
<circle cx="62.846" cy="228.899" r="4.70029" transform="rotate(-15 62.846 228.899)" fill="#376DDF" fill-opacity="0.35"/>
<circle cx="67.712" cy="247.059" r="4.70029" transform="rotate(-15 67.712 247.059)" fill="#376DDF" fill-opacity="0.35"/>
<circle cx="72.5782" cy="265.22" r="4.70029" transform="rotate(-15 72.5782 265.22)" fill="#376DDF" fill-opacity="0.35"/>
<circle cx="77.4444" cy="283.38" r="4.70029" transform="rotate(-15 77.4444 283.38)" fill="#376DDF" fill-opacity="0.35"/>
<circle cx="82.3104" cy="301.541" r="4.70029" transform="rotate(-15 82.3104 301.541)" fill="#376DDF" fill-opacity="0.35"/>
<circle cx="42.0777" cy="78.7482" r="4.70029" transform="rotate(-15 42.0777 78.7482)" fill="#376DDF" fill-opacity="0.35"/>
<circle cx="46.9439" cy="96.9088" r="4.70029" transform="rotate(-15 46.9439 96.9088)" fill="#376DDF" fill-opacity="0.35"/>
<circle cx="51.8099" cy="115.069" r="4.70029" transform="rotate(-15 51.8099 115.069)" fill="#376DDF" fill-opacity="0.35"/>
<circle cx="56.6761" cy="133.23" r="4.70029" transform="rotate(-15 56.6761 133.23)" fill="#376DDF" fill-opacity="0.35"/>
<circle cx="61.5421" cy="151.39" r="4.70029" transform="rotate(-15 61.5421 151.39)" fill="#376DDF" fill-opacity="0.35"/>
<circle cx="66.4083" cy="169.551" r="4.70029" transform="rotate(-15 66.4083 169.551)" fill="#376DDF" fill-opacity="0.35"/>
<circle cx="71.2745" cy="187.711" r="4.70029" transform="rotate(-15 71.2745 187.711)" fill="#376DDF" fill-opacity="0.35"/>
<circle cx="76.1404" cy="205.872" r="4.70029" transform="rotate(-15 76.1404 205.872)" fill="#376DDF" fill-opacity="0.35"/>
<circle cx="81.0064" cy="224.033" r="4.70029" transform="rotate(-15 81.0064 224.033)" fill="#376DDF" fill-opacity="0.35"/>
<circle cx="85.8726" cy="242.193" r="4.70029" transform="rotate(-15 85.8726 242.193)" fill="#376DDF" fill-opacity="0.35"/>
<circle cx="90.7388" cy="260.354" r="4.70029" transform="rotate(-15 90.7388 260.354)" fill="#376DDF" fill-opacity="0.35"/>
<circle cx="95.6048" cy="278.514" r="4.70029" transform="rotate(-15 95.6048 278.514)" fill="#376DDF" fill-opacity="0.35"/>
<circle cx="100.471" cy="296.675" r="4.70029" transform="rotate(-15 100.471 296.675)" fill="#376DDF" fill-opacity="0.35"/>
<circle cx="60.2381" cy="73.8821" r="4.70029" transform="rotate(-15 60.2381 73.8821)" fill="#376DDF" fill-opacity="0.35"/>
<circle cx="65.1043" cy="92.0427" r="4.70029" transform="rotate(-15 65.1043 92.0427)" fill="#376DDF" fill-opacity="0.35"/>
<circle cx="69.9705" cy="110.203" r="4.70029" transform="rotate(-15 69.9705 110.203)" fill="#376DDF" fill-opacity="0.35"/>
<circle cx="74.8365" cy="128.364" r="4.70029" transform="rotate(-15 74.8365 128.364)" fill="#376DDF" fill-opacity="0.35"/>
<circle cx="79.7027" cy="146.524" r="4.70029" transform="rotate(-15 79.7027 146.524)" fill="#376DDF" fill-opacity="0.35"/>
<circle cx="84.5689" cy="164.685" r="4.70029" transform="rotate(-15 84.5689 164.685)" fill="#376DDF" fill-opacity="0.35"/>
<circle cx="89.4349" cy="182.845" r="4.70029" transform="rotate(-15 89.4349 182.845)" fill="#376DDF" fill-opacity="0.35"/>
<circle cx="94.3011" cy="201.006" r="4.70029" transform="rotate(-15 94.3011 201.006)" fill="#376DDF" fill-opacity="0.35"/>
<circle cx="99.1671" cy="219.166" r="4.70029" transform="rotate(-15 99.1671 219.166)" fill="#376DDF" fill-opacity="0.35"/>
<circle cx="104.033" cy="237.327" r="4.70029" transform="rotate(-15 104.033 237.327)" fill="#376DDF" fill-opacity="0.35"/>
<circle cx="108.899" cy="255.488" r="4.70029" transform="rotate(-15 108.899 255.488)" fill="#376DDF" fill-opacity="0.35"/>
<circle cx="113.765" cy="273.648" r="4.70029" transform="rotate(-15 113.765 273.648)" fill="#376DDF" fill-opacity="0.35"/>
<circle cx="118.631" cy="291.809" r="4.70029" transform="rotate(-15 118.631 291.809)" fill="#376DDF" fill-opacity="0.35"/>
<circle cx="78.399" cy="69.016" r="4.70029" transform="rotate(-15 78.399 69.016)" fill="#376DDF" fill-opacity="0.35"/>
<circle cx="83.265" cy="87.1766" r="4.70029" transform="rotate(-15 83.265 87.1766)" fill="#376DDF" fill-opacity="0.35"/>
<circle cx="88.1309" cy="105.337" r="4.70029" transform="rotate(-15 88.1309 105.337)" fill="#376DDF" fill-opacity="0.35"/>
<circle cx="92.9971" cy="123.498" r="4.70029" transform="rotate(-15 92.9971 123.498)" fill="#376DDF" fill-opacity="0.35"/>
<circle cx="97.8633" cy="141.658" r="4.70029" transform="rotate(-15 97.8633 141.658)" fill="#376DDF" fill-opacity="0.35"/>
<circle cx="102.729" cy="159.819" r="4.70029" transform="rotate(-15 102.729 159.819)" fill="#376DDF" fill-opacity="0.35"/>
<circle cx="107.596" cy="177.979" r="4.70029" transform="rotate(-15 107.596 177.979)" fill="#376DDF" fill-opacity="0.35"/>
<circle cx="112.461" cy="196.14" r="4.70029" transform="rotate(-15 112.461 196.14)" fill="#376DDF" fill-opacity="0.35"/>
<circle cx="117.328" cy="214.3" r="4.70029" transform="rotate(-15 117.328 214.3)" fill="#376DDF" fill-opacity="0.35"/>
<circle cx="122.194" cy="232.461" r="4.70029" transform="rotate(-15 122.194 232.461)" fill="#376DDF" fill-opacity="0.35"/>
<circle cx="127.06" cy="250.621" r="4.70029" transform="rotate(-15 127.06 250.621)" fill="#376DDF" fill-opacity="0.35"/>
<circle cx="131.926" cy="268.782" r="4.70029" transform="rotate(-15 131.926 268.782)" fill="#376DDF" fill-opacity="0.35"/>
<circle cx="136.792" cy="286.943" r="4.70029" transform="rotate(-15 136.792 286.943)" fill="#376DDF" fill-opacity="0.35"/>
<circle cx="96.5594" cy="64.1499" r="4.70029" transform="rotate(-15 96.5594 64.1499)" fill="#376DDF" fill-opacity="0.35"/>
<circle cx="101.425" cy="82.3104" r="4.70029" transform="rotate(-15 101.425 82.3104)" fill="#376DDF" fill-opacity="0.35"/>
<circle cx="106.292" cy="100.471" r="4.70029" transform="rotate(-15 106.292 100.471)" fill="#376DDF" fill-opacity="0.35"/>
<circle cx="111.158" cy="118.632" r="4.70029" transform="rotate(-15 111.158 118.632)" fill="#376DDF" fill-opacity="0.35"/>
<circle cx="116.024" cy="136.792" r="4.70029" transform="rotate(-15 116.024 136.792)" fill="#376DDF" fill-opacity="0.35"/>
<circle cx="120.89" cy="154.953" r="4.70029" transform="rotate(-15 120.89 154.953)" fill="#376DDF" fill-opacity="0.35"/>
<circle cx="125.756" cy="173.113" r="4.70029" transform="rotate(-15 125.756 173.113)" fill="#376DDF" fill-opacity="0.35"/>
<circle cx="130.622" cy="191.274" r="4.70029" transform="rotate(-15 130.622 191.274)" fill="#376DDF" fill-opacity="0.35"/>
<circle cx="135.488" cy="209.434" r="4.70029" transform="rotate(-15 135.488 209.434)" fill="#376DDF" fill-opacity="0.35"/>
<circle cx="140.354" cy="227.595" r="4.70029" transform="rotate(-15 140.354 227.595)" fill="#376DDF" fill-opacity="0.35"/>
<circle cx="145.22" cy="245.755" r="4.70029" transform="rotate(-15 145.22 245.755)" fill="#376DDF" fill-opacity="0.35"/>
<circle cx="150.087" cy="263.916" r="4.70029" transform="rotate(-15 150.087 263.916)" fill="#376DDF" fill-opacity="0.35"/>
<circle cx="154.953" cy="282.076" r="4.70029" transform="rotate(-15 154.953 282.076)" fill="#376DDF" fill-opacity="0.35"/>
<circle cx="114.72" cy="59.2838" r="4.70029" transform="rotate(-15 114.72 59.2838)" fill="#376DDF" fill-opacity="0.35"/>
<circle cx="119.586" cy="77.4443" r="4.70029" transform="rotate(-15 119.586 77.4443)" fill="#376DDF" fill-opacity="0.35"/>
<circle cx="124.452" cy="95.6049" r="4.70029" transform="rotate(-15 124.452 95.6049)" fill="#376DDF" fill-opacity="0.35"/>
<circle cx="129.318" cy="113.765" r="4.70029" transform="rotate(-15 129.318 113.765)" fill="#376DDF" fill-opacity="0.35"/>
<circle cx="134.184" cy="131.926" r="4.70029" transform="rotate(-15 134.184 131.926)" fill="#376DDF" fill-opacity="0.35"/>
<circle cx="139.05" cy="150.087" r="4.70029" transform="rotate(-15 139.05 150.087)" fill="#376DDF" fill-opacity="0.35"/>
<circle cx="143.917" cy="168.247" r="4.70029" transform="rotate(-15 143.917 168.247)" fill="#376DDF" fill-opacity="0.35"/>
<circle cx="148.783" cy="186.408" r="4.70029" transform="rotate(-15 148.783 186.408)" fill="#376DDF" fill-opacity="0.35"/>
<circle cx="153.649" cy="204.568" r="4.70029" transform="rotate(-15 153.649 204.568)" fill="#376DDF" fill-opacity="0.35"/>
<circle cx="158.515" cy="222.729" r="4.70029" transform="rotate(-15 158.515 222.729)" fill="#376DDF" fill-opacity="0.35"/>
<circle cx="163.381" cy="240.889" r="4.70029" transform="rotate(-15 163.381 240.889)" fill="#376DDF" fill-opacity="0.35"/>
<circle cx="168.247" cy="259.05" r="4.70029" transform="rotate(-15 168.247 259.05)" fill="#376DDF" fill-opacity="0.35"/>
<circle cx="173.113" cy="277.21" r="4.70029" transform="rotate(-15 173.113 277.21)" fill="#376DDF" fill-opacity="0.35"/>
<circle cx="132.88" cy="54.4177" r="4.70029" transform="rotate(-15 132.88 54.4177)" fill="#376DDF" fill-opacity="0.35"/>
<circle cx="137.746" cy="72.5782" r="4.70029" transform="rotate(-15 137.746 72.5782)" fill="#376DDF" fill-opacity="0.35"/>
<circle cx="142.613" cy="90.7388" r="4.70029" transform="rotate(-15 142.613 90.7388)" fill="#376DDF" fill-opacity="0.35"/>
<circle cx="147.479" cy="108.899" r="4.70029" transform="rotate(-15 147.479 108.899)" fill="#376DDF" fill-opacity="0.35"/>
<circle cx="152.345" cy="127.06" r="4.70029" transform="rotate(-15 152.345 127.06)" fill="#376DDF" fill-opacity="0.35"/>
<circle cx="157.211" cy="145.22" r="4.70029" transform="rotate(-15 157.211 145.22)" fill="#376DDF" fill-opacity="0.35"/>
<circle cx="162.077" cy="163.381" r="4.70029" transform="rotate(-15 162.077 163.381)" fill="#376DDF" fill-opacity="0.35"/>
<circle cx="166.943" cy="181.542" r="4.70029" transform="rotate(-15 166.943 181.542)" fill="#376DDF" fill-opacity="0.35"/>
<circle cx="171.809" cy="199.702" r="4.70029" transform="rotate(-15 171.809 199.702)" fill="#376DDF" fill-opacity="0.35"/>
<circle cx="176.675" cy="217.863" r="4.70029" transform="rotate(-15 176.675 217.863)" fill="#376DDF" fill-opacity="0.35"/>
<circle cx="181.542" cy="236.023" r="4.70029" transform="rotate(-15 181.542 236.023)" fill="#376DDF" fill-opacity="0.35"/>
<circle cx="186.408" cy="254.184" r="4.70029" transform="rotate(-15 186.408 254.184)" fill="#376DDF" fill-opacity="0.35"/>
<circle cx="191.274" cy="272.344" r="4.70029" transform="rotate(-15 191.274 272.344)" fill="#376DDF" fill-opacity="0.35"/>
<circle cx="151.041" cy="49.5516" r="4.70029" transform="rotate(-15 151.041 49.5516)" fill="#376DDF" fill-opacity="0.35"/>
<circle cx="155.907" cy="67.7121" r="4.70029" transform="rotate(-15 155.907 67.7121)" fill="#376DDF" fill-opacity="0.35"/>
<circle cx="160.773" cy="85.8727" r="4.70029" transform="rotate(-15 160.773 85.8727)" fill="#376DDF" fill-opacity="0.35"/>
<circle cx="165.639" cy="104.033" r="4.70029" transform="rotate(-15 165.639 104.033)" fill="#376DDF" fill-opacity="0.35"/>
<circle cx="170.505" cy="122.194" r="4.70029" transform="rotate(-15 170.505 122.194)" fill="#376DDF" fill-opacity="0.35"/>
<circle cx="175.372" cy="140.354" r="4.70029" transform="rotate(-15 175.372 140.354)" fill="#376DDF" fill-opacity="0.35"/>
<circle cx="180.238" cy="158.515" r="4.70029" transform="rotate(-15 180.238 158.515)" fill="#376DDF" fill-opacity="0.35"/>
<circle cx="185.104" cy="176.675" r="4.70029" transform="rotate(-15 185.104 176.675)" fill="#376DDF" fill-opacity="0.35"/>
<circle cx="189.97" cy="194.836" r="4.70029" transform="rotate(-15 189.97 194.836)" fill="#376DDF" fill-opacity="0.35"/>
<circle cx="194.836" cy="212.996" r="4.70029" transform="rotate(-15 194.836 212.996)" fill="#376DDF" fill-opacity="0.35"/>
<circle cx="199.702" cy="231.157" r="4.70029" transform="rotate(-15 199.702 231.157)" fill="#376DDF" fill-opacity="0.35"/>
<circle cx="204.568" cy="249.318" r="4.70029" transform="rotate(-15 204.568 249.318)" fill="#376DDF" fill-opacity="0.35"/>
<circle cx="209.434" cy="267.478" r="4.70029" transform="rotate(-15 209.434 267.478)" fill="#376DDF" fill-opacity="0.35"/>
<circle cx="169.201" cy="44.6855" r="4.70029" transform="rotate(-15 169.201 44.6855)" fill="#376DDF" fill-opacity="0.35"/>
<circle cx="174.068" cy="62.846" r="4.70029" transform="rotate(-15 174.068 62.846)" fill="#376DDF" fill-opacity="0.35"/>
<circle cx="178.934" cy="81.0066" r="4.70029" transform="rotate(-15 178.934 81.0066)" fill="#376DDF" fill-opacity="0.35"/>
<circle cx="183.8" cy="99.1671" r="4.70029" transform="rotate(-15 183.8 99.1671)" fill="#376DDF" fill-opacity="0.35"/>
<circle cx="188.666" cy="117.328" r="4.70029" transform="rotate(-15 188.666 117.328)" fill="#376DDF" fill-opacity="0.35"/>
<circle cx="193.532" cy="135.488" r="4.70029" transform="rotate(-15 193.532 135.488)" fill="#376DDF" fill-opacity="0.35"/>
<circle cx="198.398" cy="153.649" r="4.70029" transform="rotate(-15 198.398 153.649)" fill="#376DDF" fill-opacity="0.35"/>
<circle cx="203.264" cy="171.809" r="4.70029" transform="rotate(-15 203.264 171.809)" fill="#376DDF" fill-opacity="0.35"/>
<circle cx="208.13" cy="189.97" r="4.70029" transform="rotate(-15 208.13 189.97)" fill="#376DDF" fill-opacity="0.35"/>
<circle cx="212.997" cy="208.13" r="4.70029" transform="rotate(-15 212.997 208.13)" fill="#376DDF" fill-opacity="0.35"/>
<circle cx="217.863" cy="226.291" r="4.70029" transform="rotate(-15 217.863 226.291)" fill="#376DDF" fill-opacity="0.35"/>
<circle cx="222.729" cy="244.451" r="4.70029" transform="rotate(-15 222.729 244.451)" fill="#376DDF" fill-opacity="0.35"/>
<circle cx="227.595" cy="262.612" r="4.70029" transform="rotate(-15 227.595 262.612)" fill="#376DDF" fill-opacity="0.35"/>
<circle cx="187.362" cy="39.8194" r="4.70029" transform="rotate(-15 187.362 39.8194)" fill="#376DDF" fill-opacity="0.35"/>
<circle cx="192.228" cy="57.9799" r="4.70029" transform="rotate(-15 192.228 57.9799)" fill="#376DDF" fill-opacity="0.35"/>
<circle cx="197.094" cy="76.1405" r="4.70029" transform="rotate(-15 197.094 76.1405)" fill="#376DDF" fill-opacity="0.35"/>
<circle cx="201.96" cy="94.301" r="4.70029" transform="rotate(-15 201.96 94.301)" fill="#376DDF" fill-opacity="0.35"/>
<circle cx="206.826" cy="112.462" r="4.70029" transform="rotate(-15 206.826 112.462)" fill="#376DDF" fill-opacity="0.35"/>
<circle cx="211.693" cy="130.622" r="4.70029" transform="rotate(-15 211.693 130.622)" fill="#376DDF" fill-opacity="0.35"/>
<circle cx="216.559" cy="148.783" r="4.70029" transform="rotate(-15 216.559 148.783)" fill="#376DDF" fill-opacity="0.35"/>
<circle cx="221.425" cy="166.943" r="4.70029" transform="rotate(-15 221.425 166.943)" fill="#376DDF" fill-opacity="0.35"/>
<circle cx="226.291" cy="185.104" r="4.70029" transform="rotate(-15 226.291 185.104)" fill="#376DDF" fill-opacity="0.35"/>
<circle cx="231.157" cy="203.264" r="4.70029" transform="rotate(-15 231.157 203.264)" fill="#376DDF" fill-opacity="0.35"/>
<circle cx="236.023" cy="221.425" r="4.70029" transform="rotate(-15 236.023 221.425)" fill="#376DDF" fill-opacity="0.35"/>
<circle cx="240.889" cy="239.585" r="4.70029" transform="rotate(-15 240.889 239.585)" fill="#376DDF" fill-opacity="0.35"/>
<circle cx="245.755" cy="257.746" r="4.70029" transform="rotate(-15 245.755 257.746)" fill="#376DDF" fill-opacity="0.35"/>
<circle cx="205.523" cy="34.9533" r="4.70029" transform="rotate(-15 205.523 34.9533)" fill="#376DDF" fill-opacity="0.35"/>
<circle cx="210.389" cy="53.1138" r="4.70029" transform="rotate(-15 210.389 53.1138)" fill="#376DDF" fill-opacity="0.35"/>
<circle cx="215.255" cy="71.2744" r="4.70029" transform="rotate(-15 215.255 71.2744)" fill="#376DDF" fill-opacity="0.35"/>
<circle cx="220.121" cy="89.4349" r="4.70029" transform="rotate(-15 220.121 89.4349)" fill="#376DDF" fill-opacity="0.35"/>
<circle cx="224.987" cy="107.595" r="4.70029" transform="rotate(-15 224.987 107.595)" fill="#376DDF" fill-opacity="0.35"/>
<circle cx="229.853" cy="125.756" r="4.70029" transform="rotate(-15 229.853 125.756)" fill="#376DDF" fill-opacity="0.35"/>
<circle cx="234.719" cy="143.917" r="4.70029" transform="rotate(-15 234.719 143.917)" fill="#376DDF" fill-opacity="0.35"/>
<circle cx="239.585" cy="162.077" r="4.70029" transform="rotate(-15 239.585 162.077)" fill="#376DDF" fill-opacity="0.35"/>
<circle cx="244.451" cy="180.238" r="4.70029" transform="rotate(-15 244.451 180.238)" fill="#376DDF" fill-opacity="0.35"/>
<circle cx="249.318" cy="198.398" r="4.70029" transform="rotate(-15 249.318 198.398)" fill="#376DDF" fill-opacity="0.35"/>
<circle cx="254.184" cy="216.559" r="4.70029" transform="rotate(-15 254.184 216.559)" fill="#376DDF" fill-opacity="0.35"/>
<circle cx="259.05" cy="234.719" r="4.70029" transform="rotate(-15 259.05 234.719)" fill="#376DDF" fill-opacity="0.35"/>
<circle cx="263.916" cy="252.88" r="4.70029" transform="rotate(-15 263.916 252.88)" fill="#376DDF" fill-opacity="0.35"/>
<circle cx="223.683" cy="30.0872" r="4.70029" transform="rotate(-15 223.683 30.0872)" fill="#376DDF" fill-opacity="0.35"/>
<circle cx="228.549" cy="48.2477" r="4.70029" transform="rotate(-15 228.549 48.2477)" fill="#376DDF" fill-opacity="0.35"/>
<circle cx="233.415" cy="66.4082" r="4.70029" transform="rotate(-15 233.415 66.4082)" fill="#376DDF" fill-opacity="0.35"/>
<circle cx="238.282" cy="84.5688" r="4.70029" transform="rotate(-15 238.282 84.5688)" fill="#376DDF" fill-opacity="0.35"/>
<circle cx="243.148" cy="102.729" r="4.70029" transform="rotate(-15 243.148 102.729)" fill="#376DDF" fill-opacity="0.35"/>
<circle cx="248.014" cy="120.89" r="4.70029" transform="rotate(-15 248.014 120.89)" fill="#376DDF" fill-opacity="0.35"/>
<circle cx="252.88" cy="139.05" r="4.70029" transform="rotate(-15 252.88 139.05)" fill="#376DDF" fill-opacity="0.35"/>
<circle cx="257.746" cy="157.211" r="4.70029" transform="rotate(-15 257.746 157.211)" fill="#376DDF" fill-opacity="0.35"/>
<circle cx="262.612" cy="175.372" r="4.70029" transform="rotate(-15 262.612 175.372)" fill="#376DDF" fill-opacity="0.35"/>
<circle cx="267.478" cy="193.532" r="4.70029" transform="rotate(-15 267.478 193.532)" fill="#376DDF" fill-opacity="0.35"/>
<circle cx="272.344" cy="211.693" r="4.70029" transform="rotate(-15 272.344 211.693)" fill="#376DDF" fill-opacity="0.35"/>
<circle cx="277.21" cy="229.853" r="4.70029" transform="rotate(-15 277.21 229.853)" fill="#376DDF" fill-opacity="0.35"/>
<circle cx="282.076" cy="248.014" r="4.70029" transform="rotate(-15 282.076 248.014)" fill="#376DDF" fill-opacity="0.35"/>
<circle cx="241.844" cy="25.2211" r="4.70029" transform="rotate(-15 241.844 25.2211)" fill="#376DDF" fill-opacity="0.35"/>
<circle cx="246.71" cy="43.3816" r="4.70029" transform="rotate(-15 246.71 43.3816)" fill="#376DDF" fill-opacity="0.35"/>
<circle cx="251.576" cy="61.5421" r="4.70029" transform="rotate(-15 251.576 61.5421)" fill="#376DDF" fill-opacity="0.35"/>
<circle cx="256.442" cy="79.7027" r="4.70029" transform="rotate(-15 256.442 79.7027)" fill="#376DDF" fill-opacity="0.35"/>
<circle cx="261.308" cy="97.8633" r="4.70029" transform="rotate(-15 261.308 97.8633)" fill="#376DDF" fill-opacity="0.35"/>
<circle cx="266.174" cy="116.024" r="4.70029" transform="rotate(-15 266.174 116.024)" fill="#376DDF" fill-opacity="0.35"/>
<circle cx="271.04" cy="134.184" r="4.70029" transform="rotate(-15 271.04 134.184)" fill="#376DDF" fill-opacity="0.35"/>
<circle cx="275.907" cy="152.345" r="4.70029" transform="rotate(-15 275.907 152.345)" fill="#376DDF" fill-opacity="0.35"/>
<circle cx="280.773" cy="170.505" r="4.70029" transform="rotate(-15 280.773 170.505)" fill="#376DDF" fill-opacity="0.35"/>
<circle cx="285.638" cy="188.666" r="4.70029" transform="rotate(-15 285.638 188.666)" fill="#376DDF" fill-opacity="0.35"/>
<circle cx="290.505" cy="206.826" r="4.70029" transform="rotate(-15 290.505 206.826)" fill="#376DDF" fill-opacity="0.35"/>
<circle cx="295.371" cy="224.987" r="4.70029" transform="rotate(-15 295.371 224.987)" fill="#376DDF" fill-opacity="0.35"/>
<circle cx="300.237" cy="243.148" r="4.70029" transform="rotate(-15 300.237 243.148)" fill="#376DDF" fill-opacity="0.35"/>
<circle cx="260.004" cy="20.355" r="4.70029" transform="rotate(-15 260.004 20.355)" fill="#376DDF" fill-opacity="0.35"/>
<circle cx="264.87" cy="38.5155" r="4.70029" transform="rotate(-15 264.87 38.5155)" fill="#376DDF" fill-opacity="0.35"/>
<circle cx="269.737" cy="56.676" r="4.70029" transform="rotate(-15 269.737 56.676)" fill="#376DDF" fill-opacity="0.35"/>
<circle cx="274.603" cy="74.8366" r="4.70029" transform="rotate(-15 274.603 74.8366)" fill="#376DDF" fill-opacity="0.35"/>
<circle cx="279.469" cy="92.9971" r="4.70029" transform="rotate(-15 279.469 92.9971)" fill="#376DDF" fill-opacity="0.35"/>
<circle cx="284.335" cy="111.158" r="4.70029" transform="rotate(-15 284.335 111.158)" fill="#376DDF" fill-opacity="0.35"/>
<circle cx="289.201" cy="129.318" r="4.70029" transform="rotate(-15 289.201 129.318)" fill="#376DDF" fill-opacity="0.35"/>
<circle cx="294.067" cy="147.479" r="4.70029" transform="rotate(-15 294.067 147.479)" fill="#376DDF" fill-opacity="0.35"/>
<circle cx="298.933" cy="165.639" r="4.70029" transform="rotate(-15 298.933 165.639)" fill="#376DDF" fill-opacity="0.35"/>
<circle cx="303.799" cy="183.8" r="4.70029" transform="rotate(-15 303.799 183.8)" fill="#376DDF" fill-opacity="0.35"/>
<circle cx="308.665" cy="201.96" r="4.70029" transform="rotate(-15 308.665 201.96)" fill="#376DDF" fill-opacity="0.35"/>
<circle cx="313.531" cy="220.121" r="4.70029" transform="rotate(-15 313.531 220.121)" fill="#376DDF" fill-opacity="0.35"/>
<circle cx="318.398" cy="238.281" r="4.70029" transform="rotate(-15 318.398 238.281)" fill="#376DDF" fill-opacity="0.35"/>
<circle cx="278.165" cy="15.4889" r="4.70029" transform="rotate(-15 278.165 15.4889)" fill="#376DDF" fill-opacity="0.35"/>
<circle cx="283.031" cy="33.6494" r="4.70029" transform="rotate(-15 283.031 33.6494)" fill="#376DDF" fill-opacity="0.35"/>
<circle cx="287.897" cy="51.81" r="4.70029" transform="rotate(-15 287.897 51.81)" fill="#376DDF" fill-opacity="0.35"/>
<circle cx="292.763" cy="69.9705" r="4.70029" transform="rotate(-15 292.763 69.9705)" fill="#376DDF" fill-opacity="0.35"/>
<circle cx="297.629" cy="88.131" r="4.70029" transform="rotate(-15 297.629 88.131)" fill="#376DDF" fill-opacity="0.35"/>
<circle cx="302.495" cy="106.292" r="4.70029" transform="rotate(-15 302.495 106.292)" fill="#376DDF" fill-opacity="0.35"/>
<circle cx="307.361" cy="124.452" r="4.70029" transform="rotate(-15 307.361 124.452)" fill="#376DDF" fill-opacity="0.35"/>
<circle cx="312.228" cy="142.613" r="4.70029" transform="rotate(-15 312.228 142.613)" fill="#376DDF" fill-opacity="0.35"/>
<circle cx="317.094" cy="160.773" r="4.70029" transform="rotate(-15 317.094 160.773)" fill="#376DDF" fill-opacity="0.35"/>
<circle cx="321.96" cy="178.934" r="4.70029" transform="rotate(-15 321.96 178.934)" fill="#376DDF" fill-opacity="0.35"/>
<circle cx="326.826" cy="197.094" r="4.70029" transform="rotate(-15 326.826 197.094)" fill="#376DDF" fill-opacity="0.35"/>
<circle cx="331.692" cy="215.255" r="4.70029" transform="rotate(-15 331.692 215.255)" fill="#376DDF" fill-opacity="0.35"/>
<circle cx="336.558" cy="233.415" r="4.70029" transform="rotate(-15 336.558 233.415)" fill="#376DDF" fill-opacity="0.35"/>
<circle cx="296.326" cy="10.6228" r="4.70029" transform="rotate(-15 296.326 10.6228)" fill="#376DDF" fill-opacity="0.35"/>
<circle cx="301.191" cy="28.7833" r="4.70029" transform="rotate(-15 301.191 28.7833)" fill="#376DDF" fill-opacity="0.35"/>
<circle cx="306.057" cy="46.9439" r="4.70029" transform="rotate(-15 306.057 46.9439)" fill="#376DDF" fill-opacity="0.35"/>
<circle cx="310.924" cy="65.1044" r="4.70029" transform="rotate(-15 310.924 65.1044)" fill="#376DDF" fill-opacity="0.35"/>
<circle cx="315.79" cy="83.2649" r="4.70029" transform="rotate(-15 315.79 83.2649)" fill="#376DDF" fill-opacity="0.35"/>
<circle cx="320.656" cy="101.425" r="4.70029" transform="rotate(-15 320.656 101.425)" fill="#376DDF" fill-opacity="0.35"/>
<circle cx="325.522" cy="119.586" r="4.70029" transform="rotate(-15 325.522 119.586)" fill="#376DDF" fill-opacity="0.35"/>
<circle cx="330.388" cy="137.747" r="4.70029" transform="rotate(-15 330.388 137.747)" fill="#376DDF" fill-opacity="0.35"/>
<circle cx="335.254" cy="155.907" r="4.70029" transform="rotate(-15 335.254 155.907)" fill="#376DDF" fill-opacity="0.35"/>
<circle cx="340.12" cy="174.068" r="4.70029" transform="rotate(-15 340.12 174.068)" fill="#376DDF" fill-opacity="0.35"/>
<circle cx="344.986" cy="192.228" r="4.70029" transform="rotate(-15 344.986 192.228)" fill="#376DDF" fill-opacity="0.35"/>
<circle cx="349.852" cy="210.389" r="4.70029" transform="rotate(-15 349.852 210.389)" fill="#376DDF" fill-opacity="0.35"/>
<circle cx="354.719" cy="228.549" r="4.70029" transform="rotate(-15 354.719 228.549)" fill="#376DDF" fill-opacity="0.35"/>
<circle cx="314.486" cy="5.75665" r="4.70029" transform="rotate(-15 314.486 5.75665)" fill="#376DDF" fill-opacity="0.35"/>
<circle cx="319.352" cy="23.9172" r="4.70029" transform="rotate(-15 319.352 23.9172)" fill="#376DDF" fill-opacity="0.35"/>
<circle cx="324.218" cy="42.0777" r="4.70029" transform="rotate(-15 324.218 42.0777)" fill="#376DDF" fill-opacity="0.35"/>
<circle cx="329.084" cy="60.2383" r="4.70029" transform="rotate(-15 329.084 60.2383)" fill="#376DDF" fill-opacity="0.35"/>
<circle cx="333.95" cy="78.3988" r="4.70029" transform="rotate(-15 333.95 78.3988)" fill="#376DDF" fill-opacity="0.35"/>
<circle cx="338.816" cy="96.5593" r="4.70029" transform="rotate(-15 338.816 96.5593)" fill="#376DDF" fill-opacity="0.35"/>
<circle cx="343.683" cy="114.72" r="4.70029" transform="rotate(-15 343.683 114.72)" fill="#376DDF" fill-opacity="0.35"/>
<circle cx="348.549" cy="132.88" r="4.70029" transform="rotate(-15 348.549 132.88)" fill="#376DDF" fill-opacity="0.35"/>
<circle cx="353.415" cy="151.041" r="4.70029" transform="rotate(-15 353.415 151.041)" fill="#376DDF" fill-opacity="0.35"/>
<circle cx="358.281" cy="169.202" r="4.70029" transform="rotate(-15 358.281 169.202)" fill="#376DDF" fill-opacity="0.35"/>
<circle cx="363.147" cy="187.362" r="4.70029" transform="rotate(-15 363.147 187.362)" fill="#376DDF" fill-opacity="0.35"/>
<circle cx="368.013" cy="205.523" r="4.70029" transform="rotate(-15 368.013 205.523)" fill="#376DDF" fill-opacity="0.35"/>
<circle cx="372.879" cy="223.683" r="4.70029" transform="rotate(-15 372.879 223.683)" fill="#376DDF" fill-opacity="0.35"/>
</svg>
