<svg width="493" height="721" viewBox="0 0 493 721" fill="none" xmlns="http://www.w3.org/2000/svg">
<g opacity="0.65">
<path d="M259.714 0H440.071L707 356.8L440.071 720.596H252.5L0 356.8L259.714 0Z" fill="#202020"/>
<path d="M353.503 176.75L276.968 44.1877L430.038 44.1877L353.503 176.75Z" fill="white"/>
<path d="M299.116 258.327L222.581 125.765L375.651 125.765L299.116 258.327Z" fill="white"/>
<path d="M237.934 339.905L161.399 207.342L314.469 207.342L237.934 339.905Z" fill="white"/>
<path d="M312.715 203.943L236.18 336.505L389.25 336.505L312.715 203.943Z" fill="white"/>
<path d="M401.089 203.943L324.554 336.505L477.624 336.505L401.089 203.943Z" fill="white"/>
<path d="M475.868 339.905L399.333 207.342L552.403 207.342L475.868 339.905Z" fill="white"/>
<path d="M353.503 339.905L276.968 207.342L430.038 207.342L353.503 339.905Z" fill="white"/>
<path d="M353.503 271.923L276.968 139.361L430.038 139.361L353.503 271.923Z" fill="white"/>
<path d="M407.886 258.327L331.351 125.765L484.421 125.765L407.886 258.327Z" fill="white"/>
<path d="M353.503 543.846L276.968 676.409L430.038 676.409L353.503 543.846Z" fill="white"/>
<path d="M299.116 462.27L222.581 594.832L375.651 594.832L299.116 462.27Z" fill="white"/>
<path d="M237.934 380.693L161.399 513.255L314.469 513.255L237.934 380.693Z" fill="white"/>
<path d="M312.712 516.654L236.177 384.091L389.247 384.091L312.712 516.654Z" fill="white"/>
<path d="M401.086 516.654L324.551 384.091L477.621 384.091L401.086 516.654Z" fill="white"/>
<path d="M475.868 380.693L399.333 513.255L552.403 513.255L475.868 380.693Z" fill="white"/>
<path d="M353.503 380.693L276.968 513.255L430.038 513.255L353.503 380.693Z" fill="white"/>
<path d="M353.503 448.673L276.968 581.236L430.038 581.236L353.503 448.673Z" fill="white"/>
<path d="M407.886 462.27L331.351 594.832L484.421 594.832L407.886 462.27Z" fill="white"/>
<rect width="571.039" height="67.9808" transform="matrix(1 0 0 -1 67.9821 394.289)" fill="white"/>
<path d="M353.503 353.5L276.968 486.063L430.038 486.063L353.503 353.5Z" fill="#CA0032"/>
<path d="M353.503 367.096L276.968 234.534L430.038 234.534L353.503 367.096Z" fill="#CA0032"/>
<rect width="163.154" height="40.7885" transform="matrix(1 0 0 -1 271.925 380.693)" fill="#CA0032"/>
</g>
</svg>
