<svg width="246" height="41" viewBox="0 0 246 41" fill="none" xmlns="http://www.w3.org/2000/svg">
<rect width="40" height="40" rx="4" fill="#CA0032"/>
<path d="M16.1679 5.55554H23.5375L34.4446 20.1348L23.5375 35H15.8731L5.55566 20.1348L16.1679 5.55554Z" fill="white"/>
<path d="M20.0002 12.7778L16.8729 7.3611L23.1275 7.3611L20.0002 12.7778Z" fill="#322523"/>
<path d="M17.7778 16.1111L14.6505 10.6945L20.9051 10.6945L17.7778 16.1111Z" fill="#322523"/>
<path d="M15.2778 19.4445L12.1505 14.0278L18.4051 14.0278L15.2778 19.4445Z" fill="#322523"/>
<path d="M18.3335 13.8889L15.2062 19.3055L21.4608 19.3055L18.3335 13.8889Z" fill="#322523"/>
<path d="M21.9446 13.8889L18.8172 19.3055L25.0719 19.3055L21.9446 13.8889Z" fill="#322523"/>
<path d="M25.0002 19.4445L21.8729 14.0278L28.1275 14.0278L25.0002 19.4445Z" fill="#322523"/>
<path d="M20.0002 19.4445L16.8729 14.0278L23.1275 14.0278L20.0002 19.4445Z" fill="#322523"/>
<path d="M20.0002 16.6667L16.8729 11.25L23.1275 11.25L20.0002 16.6667Z" fill="#322523"/>
<path d="M22.2224 16.1111L19.0951 10.6945L25.3497 10.6945L22.2224 16.1111Z" fill="#322523"/>
<path d="M20.0002 27.7778L16.8729 33.1944L23.1275 33.1944L20.0002 27.7778Z" fill="#322523"/>
<path d="M17.7778 24.4445L14.6505 29.8611L20.9051 29.8611L17.7778 24.4445Z" fill="#322523"/>
<path d="M15.2778 21.1111L12.1505 26.5278L18.4051 26.5278L15.2778 21.1111Z" fill="#322523"/>
<path d="M18.3335 26.6667L15.2062 21.25L21.4608 21.25L18.3335 26.6667Z" fill="#322523"/>
<path d="M21.9446 26.6667L18.8172 21.25L25.0719 21.25L21.9446 26.6667Z" fill="#322523"/>
<path d="M25.0002 21.1111L21.8729 26.5278L28.1275 26.5278L25.0002 21.1111Z" fill="#322523"/>
<path d="M20.0002 21.1111L16.8729 26.5278L23.1275 26.5278L20.0002 21.1111Z" fill="#322523"/>
<path d="M20.0002 23.8889L16.8729 29.3055L23.1275 29.3055L20.0002 23.8889Z" fill="#322523"/>
<path d="M22.2224 24.4445L19.0951 29.8611L25.3497 29.8611L22.2224 24.4445Z" fill="#322523"/>
<rect width="23.3333" height="2.77778" transform="matrix(1 0 0 -1 8.3335 21.6667)" fill="#322523"/>
<path d="M20.0002 20L16.8729 25.4167L23.1275 25.4167L20.0002 20Z" fill="#CA0032"/>
<path d="M20.0002 20.5555L16.8729 15.1389L23.1275 15.1389L20.0002 20.5555Z" fill="#CA0032"/>
<rect width="6.66667" height="1.66667" transform="matrix(1 0 0 -1 16.6667 21.1111)" fill="#CA0032"/>
<path d="M52 33.268V6.448H56.68L66.724 20.092H64.492L74.32 6.448H79V33.268H74.068V12.028L75.976 12.496L65.788 26.068H65.212L55.276 12.496L56.896 12.028V33.268H52Z" fill="#202020"/>
<path d="M87.6768 33.7C86.3088 33.7 85.1208 33.472 84.1128 33.016C83.1048 32.56 82.3248 31.912 81.7728 31.072C81.2208 30.208 80.9448 29.212 80.9448 28.084C80.9448 27.004 81.1848 26.044 81.6648 25.204C82.1448 24.34 82.8888 23.62 83.8968 23.044C84.9048 22.468 86.1768 22.06 87.7128 21.82L94.1208 20.776V24.376L88.6128 25.312C87.6768 25.48 86.9808 25.78 86.5248 26.212C86.0688 26.644 85.8408 27.208 85.8408 27.904C85.8408 28.576 86.0928 29.116 86.5968 29.524C87.1248 29.908 87.7728 30.1 88.5408 30.1C89.5248 30.1 90.3888 29.896 91.1328 29.488C91.9008 29.056 92.4888 28.468 92.8968 27.724C93.3288 26.98 93.5448 26.164 93.5448 25.276V20.236C93.5448 19.396 93.2088 18.7 92.5368 18.148C91.8888 17.572 91.0248 17.284 89.9448 17.284C88.9368 17.284 88.0368 17.56 87.2448 18.112C86.4768 18.64 85.9128 19.348 85.5528 20.236L81.7008 18.364C82.0848 17.332 82.6848 16.444 83.5008 15.7C84.3408 14.932 85.3248 14.332 86.4528 13.9C87.5808 13.468 88.8048 13.252 90.1248 13.252C91.7328 13.252 93.1488 13.552 94.3728 14.152C95.5968 14.728 96.5448 15.544 97.2168 16.6C97.9128 17.632 98.2608 18.844 98.2608 20.236V33.268H93.7968V29.92L94.8048 29.848C94.3008 30.688 93.7008 31.396 93.0048 31.972C92.3088 32.524 91.5168 32.956 90.6288 33.268C89.7408 33.556 88.7568 33.7 87.6768 33.7Z" fill="#202020"/>
<path d="M100.62 33.268V6.016H105.336V33.268H100.62Z" fill="#202020"/>
<path d="M107.69 33.268V13.684H112.406V33.268H107.69ZM107.69 11.488V6.448H112.406V11.488H107.69Z" fill="#202020"/>
<path d="M114.76 33.268V6.016H119.476V23.872L117.676 23.332L126.892 13.684H132.76L125.524 21.568L132.904 33.268H127.504L121.096 23.116L123.904 22.54L118 28.876L119.476 25.996V33.268H114.76Z" fill="#202020"/>
<path d="M147.908 33.7C146.204 33.7 144.62 33.388 143.156 32.764C141.716 32.14 140.468 31.276 139.412 30.172C138.38 29.044 137.624 27.736 137.144 26.248L141.212 24.484C141.86 26.02 142.796 27.232 144.02 28.12C145.244 28.984 146.624 29.416 148.16 29.416C149.024 29.416 149.768 29.284 150.392 29.02C151.04 28.732 151.532 28.348 151.868 27.868C152.228 27.388 152.408 26.812 152.408 26.14C152.408 25.348 152.168 24.7 151.688 24.196C151.232 23.668 150.536 23.26 149.6 22.972L144.452 21.316C142.364 20.668 140.792 19.696 139.736 18.4C138.68 17.104 138.152 15.58 138.152 13.828C138.152 12.292 138.524 10.936 139.268 9.76C140.036 8.584 141.092 7.672 142.436 7.024C143.804 6.352 145.364 6.016 147.116 6.016C148.724 6.016 150.2 6.304 151.544 6.88C152.888 7.432 154.04 8.212 155 9.22C155.984 10.204 156.716 11.368 157.196 12.712L153.164 14.512C152.636 13.168 151.844 12.136 150.788 11.416C149.732 10.672 148.508 10.3 147.116 10.3C146.3 10.3 145.58 10.444 144.956 10.732C144.332 10.996 143.84 11.38 143.48 11.884C143.144 12.364 142.976 12.94 142.976 13.612C142.976 14.356 143.216 15.016 143.696 15.592C144.176 16.144 144.908 16.576 145.892 16.888L150.824 18.436C152.96 19.132 154.556 20.092 155.612 21.316C156.692 22.54 157.232 24.052 157.232 25.852C157.232 27.388 156.836 28.744 156.044 29.92C155.252 31.096 154.16 32.02 152.768 32.692C151.376 33.364 149.756 33.7 147.908 33.7Z" fill="#202020"/>
<path d="M159.245 40.468V13.684H163.673V17.572L163.241 16.6C163.913 15.544 164.825 14.728 165.977 14.152C167.129 13.552 168.461 13.252 169.973 13.252C171.821 13.252 173.489 13.708 174.977 14.62C176.465 15.532 177.641 16.756 178.505 18.292C179.393 19.828 179.837 21.556 179.837 23.476C179.837 25.372 179.405 27.1 178.541 28.66C177.677 30.22 176.501 31.456 175.013 32.368C173.525 33.256 171.833 33.7 169.937 33.7C168.521 33.7 167.213 33.424 166.013 32.872C164.837 32.296 163.901 31.48 163.205 30.424L163.961 29.488V40.468H159.245ZM169.397 29.38C170.477 29.38 171.437 29.128 172.277 28.624C173.117 28.12 173.765 27.424 174.221 26.536C174.701 25.648 174.941 24.628 174.941 23.476C174.941 22.324 174.701 21.316 174.221 20.452C173.765 19.564 173.117 18.868 172.277 18.364C171.437 17.836 170.477 17.572 169.397 17.572C168.365 17.572 167.429 17.824 166.589 18.328C165.773 18.832 165.125 19.54 164.645 20.452C164.189 21.34 163.961 22.348 163.961 23.476C163.961 24.628 164.189 25.648 164.645 26.536C165.125 27.424 165.773 28.12 166.589 28.624C167.429 29.128 168.365 29.38 169.397 29.38Z" fill="#202020"/>
<path d="M187.372 33.7C186.004 33.7 184.816 33.472 183.808 33.016C182.8 32.56 182.02 31.912 181.468 31.072C180.916 30.208 180.64 29.212 180.64 28.084C180.64 27.004 180.88 26.044 181.36 25.204C181.84 24.34 182.584 23.62 183.592 23.044C184.6 22.468 185.872 22.06 187.408 21.82L193.816 20.776V24.376L188.308 25.312C187.372 25.48 186.676 25.78 186.22 26.212C185.764 26.644 185.536 27.208 185.536 27.904C185.536 28.576 185.788 29.116 186.292 29.524C186.82 29.908 187.468 30.1 188.236 30.1C189.22 30.1 190.084 29.896 190.828 29.488C191.596 29.056 192.184 28.468 192.592 27.724C193.024 26.98 193.24 26.164 193.24 25.276V20.236C193.24 19.396 192.904 18.7 192.232 18.148C191.584 17.572 190.72 17.284 189.64 17.284C188.632 17.284 187.732 17.56 186.94 18.112C186.172 18.64 185.608 19.348 185.248 20.236L181.396 18.364C181.78 17.332 182.38 16.444 183.196 15.7C184.036 14.932 185.02 14.332 186.148 13.9C187.276 13.468 188.5 13.252 189.82 13.252C191.428 13.252 192.844 13.552 194.068 14.152C195.292 14.728 196.24 15.544 196.912 16.6C197.608 17.632 197.956 18.844 197.956 20.236V33.268H193.492V29.92L194.5 29.848C193.996 30.688 193.396 31.396 192.7 31.972C192.004 32.524 191.212 32.956 190.324 33.268C189.436 33.556 188.452 33.7 187.372 33.7Z" fill="#202020"/>
<path d="M200.315 33.268V6.016H205.031V17.536L204.383 16.852C204.839 15.676 205.583 14.788 206.615 14.188C207.671 13.564 208.895 13.252 210.287 13.252C211.727 13.252 212.999 13.564 214.103 14.188C215.231 14.812 216.107 15.688 216.731 16.816C217.355 17.92 217.667 19.204 217.667 20.668V33.268H212.951V21.784C212.951 20.92 212.783 20.176 212.447 19.552C212.111 18.928 211.643 18.448 211.043 18.112C210.467 17.752 209.783 17.572 208.991 17.572C208.223 17.572 207.539 17.752 206.939 18.112C206.339 18.448 205.871 18.928 205.535 19.552C205.199 20.176 205.031 20.92 205.031 21.784V33.268H200.315Z" fill="#202020"/>
<path d="M219.655 33.268V13.684H224.371V33.268H219.655ZM219.655 11.488V6.448H224.371V11.488H219.655Z" fill="#202020"/>
<path d="M236.157 33.7C234.213 33.7 232.461 33.256 230.901 32.368C229.365 31.456 228.153 30.232 227.265 28.696C226.377 27.136 225.933 25.384 225.933 23.44C225.933 21.496 226.377 19.756 227.265 18.22C228.153 16.684 229.365 15.472 230.901 14.584C232.461 13.696 234.213 13.252 236.157 13.252C237.549 13.252 238.845 13.504 240.045 14.008C241.245 14.488 242.277 15.16 243.141 16.024C244.029 16.864 244.665 17.872 245.049 19.048L240.909 20.848C240.549 19.864 239.937 19.072 239.073 18.472C238.233 17.872 237.261 17.572 236.157 17.572C235.125 17.572 234.201 17.824 233.385 18.328C232.593 18.832 231.969 19.528 231.513 20.416C231.057 21.304 230.829 22.324 230.829 23.476C230.829 24.628 231.057 25.648 231.513 26.536C231.969 27.424 232.593 28.12 233.385 28.624C234.201 29.128 235.125 29.38 236.157 29.38C237.285 29.38 238.269 29.08 239.109 28.48C239.949 27.88 240.549 27.076 240.909 26.068L245.049 27.94C244.665 29.044 244.041 30.04 243.177 30.928C242.313 31.792 241.281 32.476 240.081 32.98C238.881 33.46 237.573 33.7 236.157 33.7ZM233.817 10.228L236.157 4H242.277L238.461 10.228H233.817Z" fill="#202020"/>
</svg>
