<svg width="32" height="27" viewBox="0 0 32 27" fill="none" xmlns="http://www.w3.org/2000/svg">
<path d="M26.9714 18.4359C27.1066 18.3602 27.219 18.251 27.2973 18.1194C27.3756 17.9879 27.4171 17.8385 27.4176 17.6863L27.4336 12.6655C27.4341 12.5133 27.4756 12.3639 27.5539 12.2323C27.6322 12.1007 27.7447 11.9915 27.8799 11.9157L30.6684 10.3524C30.8035 10.2766 30.9567 10.2368 31.1126 10.2371C31.2684 10.2373 31.4215 10.2776 31.5563 10.3538C31.6912 10.4299 31.8032 10.5394 31.8811 10.6712C31.959 10.803 32 10.9524 32 11.1045V20.2327C32 20.3853 31.9587 20.5352 31.8804 20.6673C31.802 20.7994 31.6894 20.909 31.5537 20.985L21.03 26.8848C20.8956 26.9601 20.7433 26.9998 20.5882 27C20.4332 27.0001 20.2808 26.9607 20.1462 26.8856L11.8875 22.2751C11.7514 22.1992 11.6383 22.0896 11.5596 21.9574C11.4809 21.8252 11.4394 21.675 11.4394 21.522V16.9193C11.4394 16.9142 11.4456 16.9107 11.451 16.9132C11.4554 16.9159 11.4616 16.9132 11.4616 16.9071V16.902C11.4616 16.8985 11.4634 16.895 11.467 16.8933L18.269 13.0793C18.2752 13.0758 18.2725 13.0662 18.2654 13.0662C18.2635 13.0662 18.2617 13.0655 18.2603 13.0642C18.259 13.0629 18.2582 13.0611 18.2582 13.0593L18.2716 8.54681C18.2723 8.39421 18.2317 8.24415 18.1539 8.11176C18.0761 7.97938 17.964 7.86935 17.8287 7.79279C17.6935 7.71623 17.5399 7.67584 17.3836 7.67569C17.2273 7.67555 17.0736 7.71565 16.9382 7.79196L11.883 10.6353C11.7481 10.7111 11.5951 10.751 11.4394 10.751C11.2838 10.751 11.1308 10.7111 10.9959 10.6353L5.92463 7.78525C5.78952 7.70931 5.63633 7.66938 5.48042 7.66948C5.32452 7.66958 5.17138 7.7097 5.03638 7.78582C4.90138 7.86193 4.78926 7.97137 4.71129 8.10314C4.63331 8.23492 4.59221 8.38439 4.59213 8.53656V16.6921C4.59224 16.8441 4.55144 16.9935 4.4738 17.1253C4.39616 17.257 4.28442 17.3666 4.14975 17.4429C4.01509 17.5193 3.86224 17.5598 3.7065 17.5603C3.55076 17.5609 3.39761 17.5215 3.26238 17.4461L0.448001 15.8754C0.311721 15.7994 0.198481 15.6896 0.119792 15.557C0.0411041 15.4245 -0.000226885 15.274 9.3676e-07 15.1208L0.0250009 0.865738C0.0253997 0.71382 0.066662 0.564667 0.14466 0.4332C0.222658 0.301733 0.334658 0.192561 0.469455 0.116605C0.604252 0.0406491 0.75712 0.000572179 0.912768 0.000383334C1.06842 0.00019449 1.22139 0.0399004 1.35638 0.115529L10.9968 5.51962C11.1315 5.59513 11.2841 5.63487 11.4394 5.63487C11.5948 5.63487 11.7474 5.59513 11.8821 5.51962L21.5196 0.115285C21.6548 0.039478 21.8081 -0.000280208 21.964 1.48654e-06C22.1199 0.000283181 22.2731 0.0405949 22.408 0.11689C22.5429 0.193185 22.6549 0.302779 22.7327 0.43467C22.8105 0.566561 22.8514 0.716108 22.8512 0.8683V15.1267C22.8513 15.2792 22.8102 15.429 22.7321 15.5611C22.6539 15.6932 22.5414 15.8028 22.406 15.8789L17.3587 18.7161C17.2232 18.7923 17.1106 18.9022 17.0325 19.0345C16.9543 19.1668 16.9134 19.317 16.9137 19.4697C16.9141 19.6224 16.9558 19.7724 17.0345 19.9043C17.1133 20.0363 17.2263 20.1457 17.3622 20.2213L20.1464 21.7684C20.2809 21.8431 20.4331 21.8823 20.5879 21.8819C20.7427 21.8816 20.8948 21.8418 21.029 21.7665L26.9715 18.4358L26.9714 18.4359ZM27.5554 5.64553C27.5555 5.79897 27.5973 5.94964 27.6765 6.08217C27.7558 6.2147 27.8696 6.32435 28.0064 6.39993C28.1432 6.47551 28.2981 6.51432 28.4553 6.51241C28.6125 6.51049 28.7664 6.46792 28.9013 6.38903L31.568 4.82736C31.6996 4.75038 31.8086 4.64143 31.8843 4.51114C31.96 4.38085 31.9999 4.23365 32 4.08386V0.901363C31.9997 0.747992 31.9578 0.59743 31.8785 0.465021C31.7992 0.332612 31.6854 0.223087 31.5486 0.147607C31.4118 0.0721267 31.2569 0.0333891 31.0998 0.0353411C30.9427 0.0372931 30.7889 0.0798649 30.6541 0.158719L27.9875 1.72038C27.8558 1.79737 27.7468 1.90632 27.6711 2.03664C27.5954 2.16695 27.5555 2.31419 27.5554 2.464V5.64638V5.64553Z" fill="#007FFF"/>
</svg>
