<svg width="41" height="41" viewBox="0 0 41 41" fill="none" xmlns="http://www.w3.org/2000/svg">
<path d="M20.9803 37.6419L20.0416 37.3307C20.0416 37.3307 20.1666 32.5807 18.4478 32.2469C17.3228 30.9369 18.6141 -23.6793 22.7266 32.0607C21.9463 32.4565 21.3493 33.1386 21.0603 33.9644C20.9055 35.1841 20.8786 36.4167 20.9803 37.6419Z" fill="url(#paint0_linear_1_36)"/>
<path d="M21.4878 33.0532C23.9873 31.1717 25.9015 28.6194 27.0078 25.6931C28.1142 22.7667 28.3673 19.5865 27.7378 16.522C25.9003 8.41572 21.5491 5.75072 21.0803 4.73322C20.6759 4.09963 20.3307 3.43013 20.0491 2.73322L20.3953 25.3195C20.3953 25.3195 19.6778 32.222 21.4878 33.0532Z" fill="url(#paint1_linear_1_36)"/>
<path d="M19.5641 33.3532C19.5641 33.3532 11.9128 28.142 12.3553 18.9232C12.3966 16.144 13.0338 13.4061 14.224 10.8942C15.4141 8.38243 17.1294 6.15528 19.2541 4.36322C19.5024 4.15228 19.6996 3.88781 19.831 3.58969C19.9625 3.29158 20.0246 2.96755 20.0128 2.64197C20.4891 3.66697 20.4116 17.9457 20.4616 19.6157C20.6553 26.112 20.1003 32.127 19.5641 33.3532Z" fill="url(#paint2_linear_1_36)"/>
<defs>
<linearGradient id="paint0_linear_1_36" x1="14.6699" y1="20.4573" x2="25.4595" y2="24.1187" gradientUnits="userSpaceOnUse">
<stop offset="0.231" stop-color="#999875"/>
<stop offset="0.563" stop-color="#9B9977"/>
<stop offset="0.683" stop-color="#A09F7E"/>
<stop offset="0.768" stop-color="#A9A889"/>
<stop offset="0.837" stop-color="#B7B69A"/>
<stop offset="0.896" stop-color="#C9C7B0"/>
<stop offset="0.948" stop-color="#DEDDCB"/>
<stop offset="0.994" stop-color="#F8F6EB"/>
<stop offset="1" stop-color="#FBF9EF"/>
</linearGradient>
<linearGradient id="paint1_linear_1_36" x1="18.6265" y1="2.57182" x2="23.3965" y2="32.358" gradientUnits="userSpaceOnUse">
<stop stop-color="#48A547"/>
<stop offset="1" stop-color="#3F9143"/>
</linearGradient>
<linearGradient id="paint2_linear_1_36" x1="11.6972" y1="19.8357" x2="24.4979" y2="15.5488" gradientUnits="userSpaceOnUse">
<stop stop-color="#41A247"/>
<stop offset="0.352" stop-color="#4BA74B"/>
<stop offset="0.956" stop-color="#67B554"/>
<stop offset="1" stop-color="#69B655"/>
</linearGradient>
</defs>
</svg>
