<svg width="40" height="40" viewBox="0 0 40 40" fill="none" xmlns="http://www.w3.org/2000/svg">
<g clip-path="url(#clip0_1_57)">
<path fill-rule="evenodd" clip-rule="evenodd" d="M36.8447 31.1579C34.6692 31.0973 32.9814 31.3202 31.5668 31.9153C31.1595 32.0789 30.5059 32.0789 30.4522 32.5915C30.6699 32.8067 30.6961 33.1587 30.887 33.4568C31.2132 33.998 31.7851 34.7269 32.3016 35.105L34.0424 36.3491C35.1033 36.9974 36.3002 37.3761 37.3337 38.0251C37.9325 38.4038 38.5306 38.8904 39.1294 39.2964C39.4342 39.5127 39.619 39.8648 40.0001 39.9993V39.9175C39.8098 39.6751 39.7549 39.3237 39.5653 39.0522L38.7483 38.2687C37.9599 37.2144 36.9801 36.2945 35.9191 35.5383C35.0484 34.9432 33.1448 34.1325 32.7912 33.1327L32.7375 33.0721C33.3351 33.0115 34.0424 32.8012 34.6143 32.6388C35.5399 32.3964 36.3825 32.4497 37.3337 32.2068L38.6404 31.828V31.5857C38.1507 31.0991 37.7971 30.4501 37.2806 29.9908C35.8935 28.8013 34.3692 27.6385 32.7912 26.6653C31.9479 26.1248 30.8596 25.7727 29.962 25.314C29.6346 25.1516 29.0913 25.0704 28.9011 24.8002C28.4103 24.2064 28.1389 23.4216 27.7853 22.7181L25.5549 18.0141C25.0653 16.9598 24.7653 15.9054 24.1677 14.9322C21.3654 10.3361 18.318 7.55174 13.6389 4.82071C12.6328 4.25293 11.4359 4.00873 10.1634 3.71181L8.12322 3.60274C7.68727 3.41368 7.25253 2.89983 6.87145 2.65624C5.3209 1.68308 1.32166 -0.425637 0.178412 2.35326C-0.556316 4.11053 1.26678 5.84052 1.88566 6.73309C2.34906 7.3548 2.9466 8.05771 3.27402 8.76061C3.45694 9.21993 3.51792 9.70711 3.70877 10.1937C4.1435 11.3832 4.55203 12.7084 5.12334 13.8173C5.42821 14.3851 5.74832 14.9807 6.1294 15.494C6.34708 15.7969 6.72816 15.9266 6.80925 16.4132C6.42817 16.9543 6.40195 17.7645 6.18428 18.4413C5.20444 21.4965 5.58552 25.2813 6.97266 27.5306C7.40862 28.2063 8.43602 29.6939 9.82987 29.1255C11.0542 28.6389 10.7811 27.098 11.1347 25.7461C11.217 25.4219 11.1621 25.2056 11.3249 24.9886V25.0492L12.4407 27.2931C13.284 28.6177 14.7535 29.9968 15.9772 30.9167C16.6296 31.4033 17.1467 32.2419 17.9625 32.5388V32.457H17.9088C17.7454 32.2146 17.5003 32.1056 17.2826 31.9165C16.793 31.4299 16.2491 30.8349 15.8681 30.2944C14.726 28.7807 13.72 27.104 12.8218 25.374C12.3859 24.536 12.0048 23.6168 11.6524 22.7787C11.4877 22.4539 11.4877 21.9668 11.2164 21.8056C10.8079 22.3994 10.2103 22.9145 9.90975 23.644C9.39269 24.8063 9.33904 26.2393 9.1488 27.7263C9.03905 27.7536 9.08783 27.7263 9.03905 27.7869C8.16957 27.5712 7.86958 26.678 7.54338 25.9218C6.72755 24.0022 6.59097 20.9203 7.29826 18.7031C7.48849 18.1353 8.30554 16.3508 7.97933 15.8103C7.8147 15.2964 7.27204 14.9995 6.97205 14.5935C6.6184 14.0797 6.23854 13.4313 5.99343 12.8635C5.34102 11.3486 5.01481 9.67318 4.30691 8.1589C3.97948 7.456 3.40878 6.72582 2.94599 6.07745C2.42894 5.34728 1.85883 4.83343 1.45031 3.96874C1.31434 3.66576 1.12411 3.18463 1.34178 2.85984C1.39544 2.64352 1.50519 2.55686 1.72164 2.50839C2.07529 2.20541 3.08257 2.58959 3.43621 2.75077C4.44227 3.15676 5.28553 3.53487 6.12879 4.10205C6.50987 4.3723 6.9184 4.88615 7.40801 5.02188H7.97994C8.85063 5.21094 9.82926 5.08248 10.6445 5.32486C12.0865 5.78538 13.3919 6.46041 14.5626 7.19119C18.1259 9.43504 21.0648 12.6254 23.0501 16.438C23.3763 17.0597 23.5123 17.6275 23.8123 18.2765C24.3842 19.6017 25.0915 20.953 25.6616 22.2516C26.2335 23.5222 26.7774 24.8208 27.5932 25.8752C28.0017 26.4429 29.6334 26.7398 30.3675 27.0374C30.912 27.2798 31.7546 27.4979 32.2455 27.7948C33.1698 28.3626 34.0948 29.0116 34.9649 29.6333C35.3996 29.9569 36.7605 30.6331 36.8416 31.1724L36.8447 31.1579ZM9.10185 7.66384C8.72599 7.66053 8.3513 7.70596 7.98726 7.79897V7.85956H8.04091C8.25859 8.29221 8.63968 8.58973 8.91162 8.96845L9.53781 10.2664L9.59146 10.2058C9.97255 9.93556 10.1634 9.50291 10.1634 8.85454C9.99999 8.66548 9.97316 8.47581 9.83719 8.28676C9.67378 8.0165 9.32014 7.88077 9.10185 7.66505V7.66384Z" fill="#00678C"/>
</g>
<defs>
<clipPath id="clip0_1_57">
<rect width="40" height="40" fill="white"/>
</clipPath>
</defs>
</svg>
