<svg width="40" height="40" viewBox="0 0 40 40" fill="none" xmlns="http://www.w3.org/2000/svg">
<path d="M18.32 0.533749C19.32 -0.0325007 20.595 -0.0350007 21.57 0.533749L36.5 8.95C37.4338 9.475 38.0588 10.5162 38.05 11.5925V28.4675C38.0563 29.5887 37.37 30.6525 36.385 31.1675L21.535 39.545C21.0271 39.8257 20.4533 39.9653 19.8732 39.9492C19.2931 39.9332 18.7279 39.7621 18.2363 39.4537L13.78 36.8787C13.4763 36.6975 13.135 36.5537 12.92 36.26C13.11 36.005 13.4475 35.9725 13.7225 35.86C14.3425 35.6625 14.91 35.36 15.48 35.04C15.6238 34.94 15.8 34.9775 15.9375 35.0675L19.7375 37.265C20.0088 37.4212 20.2838 37.215 20.5163 37.0837L35.0975 28.855C35.2775 28.7675 35.3775 28.5775 35.3625 28.38V11.6675C35.3825 11.4425 35.2538 11.2375 35.05 11.1462L20.2375 2.805C20.1521 2.74596 20.0509 2.71423 19.9471 2.714C19.8433 2.71378 19.7419 2.74508 19.6563 2.80375L4.865 11.1625C4.665 11.2538 4.5275 11.4563 4.5525 11.6813V28.3937C4.535 28.5912 4.64 28.7775 4.82125 28.8625L8.77375 31.0937C9.51625 31.4937 10.4275 31.7187 11.245 31.425C11.6027 31.2902 11.9107 31.0492 12.1277 30.7344C12.3446 30.4196 12.4601 30.0461 12.4588 29.6637L12.4625 13.0512C12.445 12.805 12.6775 12.6012 12.9163 12.6262H14.8163C15.0663 12.62 15.2625 12.885 15.2288 13.1325L15.225 29.85C15.2263 31.335 14.6163 32.95 13.2425 33.6787C11.55 34.5537 9.4575 34.37 7.785 33.5287L3.535 31.1787C2.535 30.6787 1.86375 29.5987 1.87 28.4787V11.6037C1.87416 11.0553 2.02494 10.5179 2.30671 10.0473C2.58848 9.57677 2.99099 9.19013 3.4725 8.9275L18.32 0.533749ZM22.625 12.2312C24.7837 12.1062 27.095 12.1487 29.0375 13.2125C30.5412 14.0275 31.375 15.7375 31.4025 17.41C31.36 17.635 31.125 17.76 30.91 17.7437C30.285 17.7425 29.6575 17.7525 29.03 17.74C28.7638 17.75 28.61 17.505 28.5762 17.27C28.3962 16.47 27.96 15.6788 27.2075 15.2925C26.0525 14.7138 24.7125 14.7425 23.4525 14.755C22.5325 14.805 21.5438 14.8837 20.765 15.4237C20.165 15.8337 19.985 16.6737 20.1988 17.3262C20.3988 17.805 20.9525 17.9587 21.4037 18.1012C24.0062 18.7812 26.7625 18.7262 29.3162 19.61C30.3725 19.975 31.4063 20.685 31.7688 21.7912C32.2413 23.2737 32.035 25.0462 30.9812 26.2362C30.1262 27.2162 28.8813 27.7362 27.6375 28.0387C25.9838 28.4075 24.2688 28.4162 22.59 28.2512C21.0113 28.0712 19.3688 27.6562 18.15 26.5812C17.1075 25.6762 16.6 24.2662 16.65 22.9062C16.6625 22.6762 16.8913 22.5162 17.1125 22.535H18.9875C19.24 22.5175 19.425 22.735 19.4375 22.9725C19.5538 23.7225 19.84 24.535 20.505 24.9725C21.7875 25.8 23.3963 25.7425 24.8638 25.7662C26.08 25.7125 27.445 25.6962 28.4387 24.8912C28.9637 24.4325 29.1175 23.6662 28.9762 23.0062C28.8225 22.4487 28.2262 22.19 27.7262 22.0062C25.1575 21.1937 22.37 21.4887 19.8263 20.5687C18.7938 20.2037 17.795 19.5137 17.3988 18.4525C16.845 16.9525 17.0988 15.0937 18.265 13.9437C19.39 12.8 21.04 12.3587 22.6025 12.2012L22.625 12.2312Z" fill="#8CC84B"/>
</svg>
