<svg width="119" height="40" viewBox="0 0 119 40" fill="none" xmlns="http://www.w3.org/2000/svg">
<path d="M48.704 17.168C48.0413 17.168 47.444 17.042 46.912 16.79C46.3893 16.538 45.9507 16.2067 45.596 15.796C45.2507 15.3853 45.0033 14.942 44.854 14.466L45.666 14.172C45.9273 14.8813 46.3147 15.4227 46.828 15.796C47.3507 16.1693 47.9713 16.356 48.69 16.356C49.166 16.356 49.5813 16.2767 49.936 16.118C50.3 15.9593 50.5847 15.7353 50.79 15.446C50.9953 15.1567 51.098 14.816 51.098 14.424C51.098 13.8827 50.944 13.4627 50.636 13.164C50.3373 12.8653 49.9453 12.6507 49.46 12.52L47.556 11.96C46.7813 11.736 46.2073 11.3767 45.834 10.882C45.47 10.378 45.288 9.80867 45.288 9.174C45.288 8.62333 45.4187 8.14267 45.68 7.732C45.9507 7.312 46.3147 6.98533 46.772 6.752C47.2293 6.51867 47.7473 6.402 48.326 6.402C48.9327 6.402 49.474 6.51867 49.95 6.752C50.4353 6.976 50.8413 7.27467 51.168 7.648C51.504 8.012 51.742 8.418 51.882 8.866L51.084 9.16C50.8507 8.516 50.4913 8.03067 50.006 7.704C49.5207 7.368 48.9653 7.2 48.34 7.2C47.9293 7.2 47.5607 7.27933 47.234 7.438C46.9073 7.59667 46.6507 7.82067 46.464 8.11C46.2773 8.39933 46.184 8.74 46.184 9.132C46.184 9.608 46.3193 10.014 46.59 10.35C46.8607 10.686 47.3133 10.952 47.948 11.148L49.656 11.652C50.4027 11.876 50.9767 12.2213 51.378 12.688C51.7887 13.1453 51.994 13.71 51.994 14.382C51.994 14.9327 51.854 15.418 51.574 15.838C51.294 16.2487 50.902 16.5753 50.398 16.818C49.9033 17.0513 49.3387 17.168 48.704 17.168ZM54.1581 17V9.566H54.9981V17H54.1581ZM54.1581 8.11V6.57H54.9981V8.11H54.1581ZM57.3026 17V9.566H58.1426V11.064L57.9886 10.854C58.1753 10.406 58.474 10.0513 58.8846 9.79C59.3046 9.52867 59.7713 9.398 60.2846 9.398C60.8633 9.398 61.3906 9.566 61.8666 9.902C62.3426 10.2287 62.674 10.6673 62.8606 11.218L62.5946 11.232C62.7533 10.6627 63.066 10.2147 63.5326 9.888C64.0086 9.56133 64.536 9.398 65.1146 9.398C65.6093 9.398 66.062 9.51467 66.4726 9.748C66.8926 9.98133 67.2286 10.308 67.4806 10.728C67.742 11.1387 67.8726 11.61 67.8726 12.142V17H67.0326V12.38C67.0326 11.932 66.9393 11.5493 66.7526 11.232C66.5753 10.9053 66.3373 10.658 66.0386 10.49C65.74 10.3127 65.404 10.224 65.0306 10.224C64.6293 10.224 64.2746 10.322 63.9666 10.518C63.668 10.714 63.43 10.9847 63.2526 11.33C63.0846 11.6753 63.0006 12.072 63.0006 12.52V17H62.1606V12.38C62.1606 11.932 62.072 11.5493 61.8946 11.232C61.7173 10.9053 61.4746 10.658 61.1666 10.49C60.868 10.3127 60.532 10.224 60.1586 10.224C59.7573 10.224 59.4026 10.322 59.0946 10.518C58.796 10.714 58.5626 10.9847 58.3946 11.33C58.2266 11.6753 58.1426 12.072 58.1426 12.52V17H57.3026ZM73.4891 17.168C72.7798 17.168 72.1405 17 71.5711 16.664C71.0018 16.328 70.5491 15.866 70.2131 15.278C69.8865 14.6807 69.7231 14.0133 69.7231 13.276C69.7231 12.5387 69.8865 11.876 70.2131 11.288C70.5491 10.7 70.9971 10.238 71.5571 9.902C72.1265 9.566 72.7705 9.398 73.4891 9.398C74.1985 9.398 74.8378 9.566 75.4071 9.902C75.9765 10.238 76.4245 10.7 76.7511 11.288C77.0778 11.8667 77.2411 12.5293 77.2411 13.276C77.2411 14.0227 77.0731 14.69 76.7371 15.278C76.4011 15.866 75.9485 16.328 75.3791 16.664C74.8191 17 74.1891 17.168 73.4891 17.168ZM73.4891 16.342C74.0211 16.342 74.5018 16.2113 74.9311 15.95C75.3698 15.6793 75.7151 15.3107 75.9671 14.844C76.2191 14.3773 76.3451 13.8547 76.3451 13.276C76.3451 12.6973 76.2191 12.1793 75.9671 11.722C75.7151 11.2647 75.3745 10.9007 74.9451 10.63C74.5158 10.3593 74.0305 10.224 73.4891 10.224C72.9478 10.224 72.4578 10.3593 72.0191 10.63C71.5898 10.8913 71.2491 11.2553 70.9971 11.722C70.7451 12.1793 70.6191 12.6973 70.6191 13.276C70.6191 13.8547 70.7451 14.3773 70.9971 14.844C71.2585 15.3107 71.6038 15.6793 72.0331 15.95C72.4625 16.2113 72.9478 16.342 73.4891 16.342ZM79.2597 17V9.566H80.0997V11.064L79.8897 11.008C80.0577 10.5133 80.3563 10.1213 80.7857 9.832C81.2243 9.54267 81.733 9.398 82.3117 9.398C82.825 9.398 83.2917 9.51467 83.7117 9.748C84.1317 9.98133 84.4677 10.308 84.7197 10.728C84.9717 11.1387 85.0977 11.61 85.0977 12.142V17H84.2577V12.38C84.2577 11.932 84.169 11.5493 83.9917 11.232C83.8143 10.9053 83.567 10.658 83.2497 10.49C82.9417 10.3127 82.587 10.224 82.1857 10.224C81.7657 10.224 81.397 10.322 81.0797 10.518C80.7623 10.714 80.5197 10.9847 80.3517 11.33C80.1837 11.6753 80.0997 12.072 80.0997 12.52V17H79.2597ZM92.0879 17.168C91.3973 17.168 90.7906 16.9953 90.2679 16.65C89.7453 16.3047 89.3626 15.8333 89.1199 15.236L89.8479 14.9C90.0813 15.3573 90.3939 15.7213 90.7859 15.992C91.1779 16.2533 91.6119 16.384 92.0879 16.384C92.5733 16.384 92.9793 16.2673 93.3059 16.034C93.6419 15.7913 93.8099 15.474 93.8099 15.082C93.8099 14.8393 93.7446 14.634 93.6139 14.466C93.4926 14.298 93.3339 14.1627 93.1379 14.06C92.9419 13.948 92.7319 13.864 92.5079 13.808L91.3599 13.486C90.7159 13.3087 90.2399 13.0473 89.9319 12.702C89.6333 12.3567 89.4839 11.9507 89.4839 11.484C89.4839 11.064 89.5913 10.7 89.8059 10.392C90.0206 10.0747 90.3099 9.832 90.6739 9.664C91.0379 9.48667 91.4393 9.398 91.8779 9.398C92.4939 9.398 93.0539 9.55667 93.5579 9.874C94.0619 10.1913 94.4166 10.6207 94.6219 11.162L93.8659 11.512C93.6699 11.092 93.3946 10.7653 93.0399 10.532C92.6853 10.2893 92.2933 10.168 91.8639 10.168C91.4159 10.168 91.0519 10.2893 90.7719 10.532C90.4919 10.7653 90.3519 11.064 90.3519 11.428C90.3519 11.6613 90.4079 11.8573 90.5199 12.016C90.6319 12.1653 90.7766 12.2913 90.9539 12.394C91.1406 12.4873 91.3319 12.562 91.5279 12.618L92.7739 12.982C93.3806 13.15 93.8473 13.416 94.1739 13.78C94.5099 14.144 94.6779 14.5733 94.6779 15.068C94.6779 15.4693 94.5659 15.8287 94.3419 16.146C94.1179 16.4633 93.8099 16.7153 93.4179 16.902C93.0259 17.0793 92.5826 17.168 92.0879 17.168ZM98.7509 17.168C98.2843 17.168 97.8689 17.0793 97.5049 16.902C97.1409 16.7247 96.8516 16.4773 96.6369 16.16C96.4223 15.8427 96.3149 15.4787 96.3149 15.068C96.3149 14.704 96.3943 14.3633 96.5529 14.046C96.7116 13.7287 96.9683 13.458 97.3229 13.234C97.6776 13.0007 98.1396 12.8373 98.7089 12.744L101.719 12.24V13.024L98.9329 13.486C98.2983 13.5887 97.8503 13.78 97.5889 14.06C97.3276 14.34 97.1969 14.6667 97.1969 15.04C97.1969 15.4413 97.3463 15.768 97.6449 16.02C97.9529 16.272 98.3403 16.398 98.8069 16.398C99.3483 16.398 99.8196 16.2767 100.221 16.034C100.622 15.782 100.935 15.4553 101.159 15.054C101.383 14.6433 101.495 14.1953 101.495 13.71V11.862C101.495 11.3673 101.318 10.966 100.963 10.658C100.608 10.35 100.146 10.196 99.5769 10.196C99.1103 10.196 98.6903 10.3127 98.3169 10.546C97.9436 10.7793 97.6589 11.0827 97.4629 11.456L96.7069 11.05C96.8469 10.7513 97.0616 10.476 97.3509 10.224C97.6403 9.972 97.9763 9.77133 98.3589 9.622C98.7416 9.47267 99.1476 9.398 99.5769 9.398C100.118 9.398 100.594 9.50533 101.005 9.72C101.425 9.92533 101.752 10.2147 101.985 10.588C102.218 10.952 102.335 11.3767 102.335 11.862V17H101.495V15.446L101.593 15.516C101.472 15.8147 101.271 16.09 100.991 16.342C100.711 16.5847 100.38 16.7853 99.9969 16.944C99.6236 17.0933 99.2083 17.168 98.7509 17.168ZM104.676 20.08C104.546 20.08 104.401 20.066 104.242 20.038C104.093 20.0193 103.948 19.9867 103.808 19.94V19.156C103.92 19.184 104.046 19.2073 104.186 19.226C104.336 19.2447 104.471 19.254 104.592 19.254C105.05 19.2447 105.409 19.1327 105.67 18.918C105.932 18.7033 106.17 18.3487 106.384 17.854L106.916 16.608V17.392L103.766 9.566H104.69L107.392 16.314H107.056L109.772 9.566H110.71L107.238 18.036C107.108 18.344 106.935 18.6567 106.72 18.974C106.506 19.2913 106.23 19.5527 105.894 19.758C105.568 19.9727 105.162 20.08 104.676 20.08ZM114.619 17.168C113.929 17.168 113.322 16.9953 112.799 16.65C112.277 16.3047 111.894 15.8333 111.651 15.236L112.379 14.9C112.613 15.3573 112.925 15.7213 113.317 15.992C113.709 16.2533 114.143 16.384 114.619 16.384C115.105 16.384 115.511 16.2673 115.837 16.034C116.173 15.7913 116.341 15.474 116.341 15.082C116.341 14.8393 116.276 14.634 116.145 14.466C116.024 14.298 115.865 14.1627 115.669 14.06C115.473 13.948 115.263 13.864 115.039 13.808L113.891 13.486C113.247 13.3087 112.771 13.0473 112.463 12.702C112.165 12.3567 112.015 11.9507 112.015 11.484C112.015 11.064 112.123 10.7 112.337 10.392C112.552 10.0747 112.841 9.832 113.205 9.664C113.569 9.48667 113.971 9.398 114.409 9.398C115.025 9.398 115.585 9.55667 116.089 9.874C116.593 10.1913 116.948 10.6207 117.153 11.162L116.397 11.512C116.201 11.092 115.926 10.7653 115.571 10.532C115.217 10.2893 114.825 10.168 114.395 10.168C113.947 10.168 113.583 10.2893 113.303 10.532C113.023 10.7653 112.883 11.064 112.883 11.428C112.883 11.6613 112.939 11.8573 113.051 12.016C113.163 12.1653 113.308 12.2913 113.485 12.394C113.672 12.4873 113.863 12.562 114.059 12.618L115.305 12.982C115.912 13.15 116.379 13.416 116.705 13.78C117.041 14.144 117.209 14.5733 117.209 15.068C117.209 15.4693 117.097 15.8287 116.873 16.146C116.649 16.4633 116.341 16.7153 115.949 16.902C115.557 17.0793 115.114 17.168 114.619 17.168Z" fill="#202020"/>
<path d="M45.078 35V24.57H48.494C49.5767 24.57 50.5147 24.7893 51.308 25.228C52.1107 25.6573 52.7313 26.264 53.17 27.048C53.6087 27.832 53.828 28.742 53.828 29.778C53.828 30.8047 53.6087 31.7147 53.17 32.508C52.7313 33.292 52.1107 33.9033 51.308 34.342C50.5147 34.7807 49.5767 35 48.494 35H45.078ZM46.73 33.53H48.522C49.2593 33.53 49.8987 33.376 50.44 33.068C50.9907 32.76 51.4153 32.326 51.714 31.766C52.0127 31.206 52.162 30.5433 52.162 29.778C52.162 29.0127 52.008 28.3547 51.7 27.804C51.4013 27.244 50.9813 26.81 50.44 26.502C49.8987 26.194 49.2593 26.04 48.522 26.04H46.73V33.53ZM57.5006 35.168C56.9873 35.168 56.5346 35.0793 56.1426 34.902C55.7599 34.7153 55.4613 34.4633 55.2466 34.146C55.0319 33.8193 54.9246 33.4367 54.9246 32.998C54.9246 32.5873 55.0133 32.2187 55.1906 31.892C55.3773 31.5653 55.6619 31.29 56.0446 31.066C56.4273 30.842 56.9079 30.6833 57.4866 30.59L60.1186 30.156V31.402L57.7946 31.808C57.3746 31.8827 57.0666 32.018 56.8706 32.214C56.6746 32.4007 56.5766 32.6433 56.5766 32.942C56.5766 33.2313 56.6839 33.4693 56.8986 33.656C57.1226 33.8333 57.4073 33.922 57.7526 33.922C58.1819 33.922 58.5553 33.8287 58.8726 33.642C59.1993 33.4553 59.4513 33.208 59.6286 32.9C59.8059 32.5827 59.8946 32.2327 59.8946 31.85V29.904C59.8946 29.5307 59.7546 29.2273 59.4746 28.994C59.2039 28.7513 58.8399 28.63 58.3826 28.63C57.9626 28.63 57.5939 28.742 57.2766 28.966C56.9686 29.1807 56.7399 29.4607 56.5906 29.806L55.2746 29.148C55.4146 28.7747 55.6433 28.448 55.9606 28.168C56.2779 27.8787 56.6466 27.6547 57.0666 27.496C57.4959 27.3373 57.9486 27.258 58.4246 27.258C59.0219 27.258 59.5493 27.37 60.0066 27.594C60.4733 27.818 60.8326 28.1307 61.0846 28.532C61.3459 28.924 61.4766 29.3813 61.4766 29.904V35H59.9646V33.628L60.2866 33.67C60.1093 33.978 59.8806 34.244 59.6006 34.468C59.3299 34.692 59.0173 34.8647 58.6626 34.986C58.3173 35.1073 57.9299 35.168 57.5006 35.168ZM63.3263 35V27.426H64.8383V28.952L64.6983 28.728C64.8663 28.2333 65.137 27.8787 65.5103 27.664C65.8837 27.44 66.3317 27.328 66.8543 27.328H67.3163V28.77H66.6583C66.1357 28.77 65.711 28.9333 65.3843 29.26C65.067 29.5773 64.9083 30.0347 64.9083 30.632V35H63.3263ZM68.3986 35V24.402H69.9806V31.5L69.3646 31.346L73.1586 27.426H75.1326L72.2766 30.464L75.2586 35H73.4386L70.7786 30.982L71.7166 30.856L69.4766 33.236L69.9806 32.186V35H68.3986ZM78.9432 35V24.57H80.4832L84.4032 30.002H83.6332L87.4832 24.57H89.0232V35H87.3852V26.516L88.0012 26.684L84.0672 32.06H83.8992L80.0492 26.684L80.5952 26.516V35H78.9432ZM94.6796 35.168C93.9516 35.168 93.2842 34.9953 92.6776 34.65C92.0802 34.3047 91.6042 33.8333 91.2496 33.236C90.8949 32.6387 90.7176 31.962 90.7176 31.206C90.7176 30.4407 90.8949 29.764 91.2496 29.176C91.6042 28.5787 92.0802 28.112 92.6776 27.776C93.2749 27.4307 93.9422 27.258 94.6796 27.258C95.4262 27.258 96.0936 27.4307 96.6816 27.776C97.2789 28.112 97.7502 28.5787 98.0956 29.176C98.4502 29.764 98.6276 30.4407 98.6276 31.206C98.6276 31.9713 98.4502 32.6527 98.0956 33.25C97.7409 33.8473 97.2649 34.3187 96.6676 34.664C96.0702 35 95.4076 35.168 94.6796 35.168ZM94.6796 33.698C95.1276 33.698 95.5242 33.5907 95.8696 33.376C96.2149 33.1613 96.4856 32.8673 96.6816 32.494C96.8869 32.1113 96.9896 31.682 96.9896 31.206C96.9896 30.73 96.8869 30.3053 96.6816 29.932C96.4856 29.5587 96.2149 29.2647 95.8696 29.05C95.5242 28.8353 95.1276 28.728 94.6796 28.728C94.2409 28.728 93.8442 28.8353 93.4896 29.05C93.1442 29.2647 92.8689 29.5587 92.6636 29.932C92.4676 30.3053 92.3696 30.73 92.3696 31.206C92.3696 31.682 92.4676 32.1113 92.6636 32.494C92.8689 32.8673 93.1442 33.1613 93.4896 33.376C93.8442 33.5907 94.2409 33.698 94.6796 33.698ZM103.672 35.168C102.944 35.168 102.291 34.9953 101.712 34.65C101.143 34.2953 100.69 33.8193 100.354 33.222C100.027 32.6247 99.864 31.9527 99.864 31.206C99.864 30.4593 100.032 29.7873 100.368 29.19C100.704 28.5927 101.157 28.1213 101.726 27.776C102.295 27.4307 102.939 27.258 103.658 27.258C104.265 27.258 104.801 27.3793 105.268 27.622C105.735 27.8647 106.103 28.2007 106.374 28.63L106.136 28.994V24.402H107.704V35H106.206V33.46L106.388 33.754C106.127 34.2113 105.753 34.5613 105.268 34.804C104.783 35.0467 104.251 35.168 103.672 35.168ZM103.826 33.698C104.265 33.698 104.657 33.5907 105.002 33.376C105.357 33.1613 105.632 32.8673 105.828 32.494C106.033 32.1113 106.136 31.682 106.136 31.206C106.136 30.73 106.033 30.3053 105.828 29.932C105.632 29.5587 105.357 29.2647 105.002 29.05C104.657 28.8353 104.265 28.728 103.826 28.728C103.387 28.728 102.991 28.8353 102.636 29.05C102.281 29.2647 102.006 29.5587 101.81 29.932C101.614 30.3053 101.516 30.73 101.516 31.206C101.516 31.682 101.614 32.1113 101.81 32.494C102.006 32.8673 102.277 33.1613 102.622 33.376C102.977 33.5907 103.378 33.698 103.826 33.698ZM113.107 35.168C112.351 35.168 111.679 34.9953 111.091 34.65C110.512 34.2953 110.06 33.8193 109.733 33.222C109.406 32.6153 109.243 31.9387 109.243 31.192C109.243 30.4267 109.406 29.75 109.733 29.162C110.069 28.574 110.517 28.112 111.077 27.776C111.637 27.4307 112.272 27.258 112.981 27.258C113.55 27.258 114.059 27.356 114.507 27.552C114.955 27.748 115.333 28.0187 115.641 28.364C115.949 28.7 116.182 29.0873 116.341 29.526C116.509 29.9647 116.593 30.4313 116.593 30.926C116.593 31.0473 116.588 31.1733 116.579 31.304C116.57 31.4347 116.551 31.556 116.523 31.668H110.489V30.408H115.627L114.871 30.982C114.964 30.5247 114.932 30.1187 114.773 29.764C114.624 29.4 114.39 29.1153 114.073 28.91C113.765 28.6953 113.401 28.588 112.981 28.588C112.561 28.588 112.188 28.6953 111.861 28.91C111.534 29.1153 111.282 29.414 111.105 29.806C110.928 30.1887 110.858 30.6553 110.895 31.206C110.848 31.7193 110.918 32.1673 111.105 32.55C111.301 32.9327 111.572 33.2313 111.917 33.446C112.272 33.6607 112.673 33.768 113.121 33.768C113.578 33.768 113.966 33.6653 114.283 33.46C114.61 33.2547 114.866 32.9887 115.053 32.662L116.341 33.292C116.192 33.6467 115.958 33.9687 115.641 34.258C115.333 34.538 114.96 34.762 114.521 34.93C114.092 35.0887 113.62 35.168 113.107 35.168Z" fill="#202020"/>
<path d="M20 7C23.4478 7 26.7544 8.36964 29.1924 10.8076C31.6304 13.2456 33 16.5522 33 20C33 23.4478 31.6304 26.7544 29.1924 29.1924C26.7544 31.6304 23.4478 33 20 33V7ZM20 4C15.7565 4 11.6869 5.68571 8.68629 8.68629C5.68571 11.6869 4 15.7565 4 20C4 24.2435 5.68571 28.3131 8.68629 31.3137C11.6869 34.3143 15.7565 36 20 36C24.2435 36 28.3131 34.3143 31.3137 31.3137C34.3143 28.3131 36 24.2435 36 20C36 15.7565 34.3143 11.6869 31.3137 8.68629C28.3131 5.68571 24.2435 4 20 4Z" fill="#202020"/>
</svg>
